<?xml version="1.0" standalone="no"?>
<!DOCTYPE svg PUBLIC "-//W3C//DTD SVG 20010904//EN"
 "http://www.w3.org/TR/2001/REC-SVG-20010904/DTD/svg10.dtd">
<svg version="1.0" xmlns="http://www.w3.org/2000/svg"
 width="2879.000000pt" height="2879.000000pt" viewBox="0 0 2879.000000 2879.000000"
 preserveAspectRatio="xMidYMid meet">
<metadata>
Created by potrace 1.14, written by Peter Selinger 2001-2017
</metadata>
<g transform="translate(0.000000,2879.000000) scale(0.100000,-0.100000)"
fill="#000000" stroke="none">
<path d="M13755 26854 c-49 -7 -164 -18 -255 -24 -91 -6 -205 -15 -255 -20
-386 -42 -729 -89 -970 -135 -99 -18 -211 -38 -250 -45 -134 -22 -674 -150
-870 -206 -66 -19 -176 -51 -245 -70 -233 -67 -542 -171 -840 -284 -74 -28
-164 -61 -200 -74 -36 -13 -85 -33 -110 -44 -25 -12 -108 -48 -185 -81 -234
-100 -329 -142 -341 -152 -6 -5 -39 -20 -75 -34 -63 -24 -346 -165 -484 -240
-38 -21 -101 -55 -140 -74 -38 -20 -81 -43 -95 -52 -14 -9 -68 -40 -120 -69
-52 -29 -120 -68 -151 -87 -31 -19 -70 -42 -87 -51 -95 -53 -140 -81 -185
-114 -28 -21 -54 -38 -58 -38 -6 0 -103 -62 -189 -120 -25 -17 -83 -55 -130
-85 -81 -52 -128 -85 -188 -131 -15 -12 -52 -38 -82 -58 -30 -20 -82 -56 -115
-81 -33 -25 -71 -53 -85 -62 -14 -10 -70 -51 -124 -93 -54 -41 -114 -86 -132
-100 -117 -88 -363 -291 -413 -341 -20 -20 -44 -40 -53 -45 -10 -5 -50 -40
-90 -77 -40 -36 -94 -83 -120 -104 -167 -137 -917 -891 -950 -958 -6 -11 -27
-36 -47 -56 -20 -20 -54 -58 -76 -84 -22 -27 -53 -61 -70 -78 -16 -16 -39 -42
-50 -57 -11 -15 -55 -70 -97 -121 -43 -52 -92 -113 -110 -137 -50 -65 -115
-145 -136 -167 -23 -24 -108 -142 -137 -189 -11 -18 -33 -49 -50 -68 -16 -20
-48 -61 -70 -93 -60 -86 -102 -145 -138 -194 -38 -52 -95 -137 -138 -206 -17
-27 -53 -84 -80 -125 -64 -98 -80 -123 -126 -199 -21 -35 -52 -84 -69 -110
-17 -25 -40 -68 -52 -94 -12 -27 -33 -62 -47 -79 -14 -16 -25 -34 -25 -40 0
-5 -16 -35 -35 -66 -19 -32 -45 -76 -57 -99 -36 -65 -107 -195 -123 -223 -8
-14 -62 -122 -120 -240 -58 -118 -110 -219 -115 -225 -5 -7 -21 -40 -34 -76
-13 -35 -46 -109 -71 -164 -80 -170 -135 -297 -161 -370 -13 -38 -38 -101 -54
-140 -72 -170 -134 -334 -187 -495 -14 -41 -38 -111 -53 -155 -45 -127 -107
-324 -128 -405 -11 -41 -43 -158 -72 -260 -79 -283 -157 -620 -219 -950 -86
-463 -138 -850 -171 -1275 -5 -77 -13 -162 -16 -190 -34 -305 -34 -1494 0
-1755 3 -25 10 -110 16 -190 6 -80 15 -176 21 -215 5 -38 18 -155 29 -260 18
-170 31 -263 86 -595 20 -121 103 -539 108 -548 2 -4 18 -74 36 -157 17 -82
42 -188 55 -235 13 -47 49 -179 80 -295 76 -281 284 -904 384 -1147 45 -109
81 -203 81 -209 0 -6 16 -48 36 -93 127 -287 189 -424 242 -536 52 -113 226
-461 243 -490 9 -14 58 -101 109 -195 51 -93 101 -181 110 -195 10 -14 43 -70
75 -125 58 -102 102 -174 184 -300 25 -38 59 -92 77 -120 46 -73 166 -253 189
-285 11 -15 45 -62 75 -105 30 -43 72 -101 92 -129 21 -28 49 -69 64 -91 32
-47 106 -145 149 -196 40 -49 71 -87 151 -194 65 -86 203 -249 342 -402 36
-40 72 -83 80 -95 8 -13 20 -27 27 -33 6 -5 33 -37 59 -70 59 -73 707 -727
792 -799 33 -28 94 -79 135 -113 41 -34 92 -78 114 -97 22 -20 60 -54 85 -76
25 -22 63 -55 85 -75 58 -52 133 -113 200 -165 32 -25 74 -59 94 -75 71 -60
144 -116 421 -320 19 -14 73 -53 120 -85 47 -32 101 -71 120 -85 55 -41 100
-71 172 -115 37 -23 72 -48 79 -56 6 -8 17 -14 23 -14 6 0 40 -19 76 -43 164
-109 156 -104 286 -181 27 -16 72 -44 101 -63 28 -18 72 -42 96 -52 25 -11 48
-24 51 -30 4 -5 35 -24 69 -42 34 -17 68 -36 75 -42 8 -6 42 -25 75 -42 34
-18 103 -53 152 -80 50 -26 104 -54 120 -62 36 -17 67 -32 120 -60 40 -21 207
-100 320 -152 33 -15 94 -44 135 -64 41 -19 104 -48 140 -62 36 -15 70 -31 77
-37 6 -5 47 -22 90 -38 43 -16 105 -39 138 -53 33 -13 105 -41 160 -62 55 -21
134 -51 175 -68 41 -16 169 -60 283 -98 114 -38 216 -73 227 -79 26 -14 645
-190 785 -224 404 -96 666 -152 848 -181 54 -9 156 -27 227 -40 70 -13 197
-31 281 -40 85 -9 210 -24 279 -35 319 -48 1056 -85 1540 -77 482 8 1114 41
1181 62 9 3 128 19 265 35 821 96 1645 287 2484 573 306 105 438 153 470 171
14 7 52 23 85 34 33 11 121 46 195 77 74 32 161 68 194 82 32 13 70 31 83 40
14 9 59 31 101 49 220 92 255 108 480 231 42 23 97 51 122 63 107 50 244 124
276 149 15 12 32 21 38 21 6 0 39 18 74 40 34 22 66 40 70 40 4 0 39 20 77 45
39 25 74 45 79 45 5 0 32 15 60 33 106 70 264 170 332 213 71 43 247 161 331
222 183 132 222 159 255 182 36 25 235 176 312 237 23 18 59 48 82 65 623 493
1369 1227 1838 1808 38 47 92 112 120 145 72 84 262 334 361 477 28 39 77 107
110 152 67 90 143 200 200 291 21 33 70 110 110 170 108 166 179 281 255 415
20 36 79 137 129 225 104 179 355 674 424 835 25 58 76 173 114 255 39 83 84
186 101 230 17 44 69 177 115 295 47 118 106 280 132 360 25 80 59 181 75 225
35 98 171 558 212 715 61 238 172 745 203 930 14 85 33 186 41 224 8 38 25
161 39 275 14 113 35 268 46 344 54 380 83 1281 59 1887 -11 276 -37 747 -44
791 -3 19 -14 88 -25 154 -20 118 -34 237 -46 385 -4 41 -17 122 -30 180 -13
58 -31 159 -40 225 -9 66 -25 154 -35 195 -10 41 -28 125 -40 185 -11 61 -28
135 -36 165 -9 30 -31 118 -49 195 -45 191 -102 412 -120 460 -8 22 -24 78
-35 125 -12 47 -44 150 -71 230 -28 80 -80 233 -116 340 -76 229 -242 649
-349 887 -42 92 -85 191 -96 218 -11 28 -24 55 -28 60 -5 6 -19 37 -31 70 -12
33 -50 110 -84 170 -34 61 -99 184 -144 275 -74 147 -107 207 -226 410 -18 30
-58 100 -89 155 -32 55 -95 159 -141 230 -47 72 -108 168 -137 213 -74 117
-95 149 -158 237 -30 43 -66 94 -79 114 -13 20 -27 38 -31 41 -5 3 -40 53 -79
112 -39 59 -81 118 -94 131 -12 13 -39 46 -60 73 -21 27 -61 78 -88 114 -28
36 -56 74 -62 85 -5 11 -19 30 -31 41 -12 12 -39 45 -61 73 -22 28 -76 94
-120 145 -75 88 -143 169 -218 260 -18 22 -50 58 -72 81 -22 23 -58 63 -80 89
-22 26 -48 56 -59 65 -10 10 -26 26 -35 35 -9 10 -28 29 -44 44 -15 15 -170
169 -345 342 -282 280 -394 386 -521 496 -101 88 -119 103 -157 130 -22 16
-54 41 -70 56 -113 105 -338 285 -436 348 -25 17 -49 37 -52 45 -3 8 -20 22
-38 31 -18 9 -43 26 -55 38 -11 12 -58 46 -103 76 -46 30 -97 67 -114 81 -17
14 -44 34 -61 43 -16 10 -64 42 -105 72 -41 30 -88 62 -104 72 -15 9 -60 38
-100 65 -39 26 -76 47 -82 47 -6 0 -19 9 -30 21 -10 12 -37 30 -59 41 -22 11
-61 36 -86 54 -26 19 -51 34 -57 34 -6 0 -23 11 -39 24 -15 13 -55 38 -88 55
-33 17 -98 54 -145 81 -47 27 -101 57 -120 67 -19 9 -47 25 -61 35 -32 21
-144 82 -224 120 -33 16 -67 33 -75 38 -39 23 -433 220 -453 226 -12 4 -33 14
-47 24 -14 9 -52 27 -85 39 -33 13 -83 36 -111 52 -28 16 -58 29 -66 29 -9 0
-47 16 -86 35 -39 20 -94 43 -124 51 -29 9 -66 24 -83 34 -16 10 -66 30 -110
45 -44 15 -94 35 -112 45 -17 10 -60 26 -95 36 -35 9 -72 22 -83 28 -26 16
-97 41 -160 56 -27 7 -73 23 -101 36 -28 12 -82 30 -120 39 -38 10 -85 26
-105 36 -20 10 -82 30 -138 44 -56 14 -125 34 -154 45 -29 11 -91 28 -140 40
-48 11 -103 26 -122 34 -18 8 -89 26 -157 41 -68 14 -141 33 -163 40 -22 8
-89 24 -150 35 -60 11 -141 29 -180 40 -68 19 -198 43 -620 115 -294 50 -647
90 -1010 115 -88 6 -202 18 -253 26 -127 19 -1300 18 -1437 -2z m925 -3516 c5
-13 32 -84 60 -158 54 -142 95 -229 140 -295 15 -22 68 -118 119 -213 50 -94
112 -204 137 -242 63 -97 79 -138 113 -281 60 -252 61 -361 6 -612 -45 -204
-193 -409 -286 -395 -39 5 -95 91 -119 182 -12 45 -30 108 -40 141 -11 33 -29
105 -40 160 -40 200 -95 365 -120 365 -41 0 -107 -287 -130 -565 -7 -77 -18
-153 -25 -170 -16 -37 -72 -95 -94 -96 -71 -5 -152 38 -214 114 -39 48 -106
178 -130 252 -37 114 -46 325 -22 492 25 163 133 438 215 543 37 47 93 145
127 222 16 35 68 139 117 231 48 92 92 184 97 205 34 129 40 142 59 142 12 0
25 -10 30 -22z m2034 -1673 c55 -6 182 -60 190 -81 6 -16 1 -20 -67 -43 -69
-24 -189 -106 -253 -173 -164 -173 -235 -313 -303 -598 -33 -136 -81 -301 -99
-340 -9 -19 -46 -64 -82 -100 -52 -51 -78 -69 -120 -82 -92 -28 -113 -29 -200
-14 -72 12 -88 19 -107 43 -58 74 -61 76 -116 70 -83 -10 -145 -51 -328 -214
-96 -85 -190 -162 -209 -170 -19 -8 -38 -20 -41 -25 -4 -5 -13 -3 -22 6 -18
18 -33 196 -24 285 4 31 25 130 47 221 31 122 54 191 91 265 44 89 77 141 215
333 102 143 356 358 519 440 94 48 413 135 610 166 147 23 181 25 299 11z
m-3747 -14 c102 -20 349 -88 440 -121 158 -58 341 -181 512 -344 41 -39 80
-78 87 -86 54 -63 88 -109 106 -144 11 -23 30 -54 43 -71 12 -16 35 -57 52
-90 16 -33 41 -83 56 -111 29 -58 71 -205 87 -309 13 -76 4 -392 -11 -416 -13
-21 -70 14 -159 96 -94 89 -189 166 -349 287 -50 38 -218 118 -248 118 -17 0
-16 -13 4 -70 17 -47 17 -48 -8 -95 -25 -50 -69 -85 -106 -85 -38 0 -200 70
-249 107 -25 20 -64 63 -85 96 -44 67 -63 126 -109 337 -39 175 -66 254 -132
383 -76 148 -151 238 -268 320 -14 10 -39 28 -57 41 -17 13 -63 33 -103 46
-39 12 -73 26 -76 31 -7 12 46 37 149 69 79 25 109 29 209 29 77 1 151 -6 215
-18z m-1561 -217 c62 -38 138 -132 155 -192 25 -85 10 -534 -26 -782 -30 -209
-55 -364 -61 -382 -3 -11 -13 -18 -22 -16 -12 2 -25 32 -43 98 -27 97 -152
426 -214 560 -19 42 -35 79 -35 83 0 4 -18 49 -40 100 -46 109 -90 265 -90
322 0 99 48 170 144 217 82 39 161 37 232 -8z m6741 -25 c31 -24 65 -61 76
-83 40 -77 32 -195 -25 -351 -16 -44 -46 -129 -68 -190 -21 -60 -48 -132 -60
-160 -34 -79 -94 -245 -155 -430 -59 -179 -81 -222 -109 -212 -14 6 -16 34
-16 254 0 201 -5 290 -26 473 -30 261 -36 501 -15 572 22 77 88 142 171 169
14 5 58 7 98 5 68 -3 75 -6 129 -47z m-1158 -443 c6 -7 18 -47 26 -87 8 -41
21 -103 29 -139 29 -123 36 -309 26 -700 -12 -475 -24 -553 -139 -910 -44
-135 -91 -284 -105 -332 -57 -188 -77 -232 -226 -473 -111 -181 -292 -386
-418 -476 -85 -60 -204 -129 -212 -124 -4 2 -4 25 0 50 4 25 5 45 2 45 -3 0 2
8 11 18 14 16 21 41 18 68 0 6 -12 24 -25 39 -14 16 -22 33 -19 38 6 10 -26
36 -45 37 -7 0 -18 4 -25 10 -59 48 -77 61 -77 54 0 -4 -10 2 -22 13 -13 11
-54 39 -93 63 -56 35 -81 45 -127 48 -32 2 -62 10 -67 16 -7 9 -3 41 15 102
13 49 32 114 40 144 15 57 92 215 137 285 106 164 237 313 400 458 135 119
146 133 124 155 -14 14 -26 14 -92 4 -82 -13 -200 -66 -294 -133 -30 -22 -59
-39 -65 -39 -6 0 -24 -12 -41 -26 -16 -14 -48 -35 -70 -46 -128 -66 -327 -268
-442 -448 -37 -58 -78 -118 -91 -135 -27 -32 -122 -220 -122 -240 0 -7 -14
-57 -31 -111 -38 -125 -95 -404 -104 -509 -3 -44 -10 -294 -15 -555 -8 -454
-15 -540 -40 -540 -5 0 -16 20 -25 44 -23 60 -89 122 -140 130 -68 12 -116 29
-112 40 2 6 -6 19 -18 28 -15 11 -26 37 -34 75 -14 73 -31 357 -31 533 0 508
-58 758 -245 1065 -30 50 -67 112 -80 138 -50 93 -122 176 -281 324 -49 45
-101 94 -116 109 -15 14 -54 39 -85 54 -32 16 -69 40 -82 54 -13 14 -30 26
-38 26 -8 0 -26 13 -41 28 -15 16 -52 39 -82 51 -30 13 -62 29 -70 37 -32 27
-239 82 -261 69 -11 -8 25 -81 46 -93 15 -8 151 -133 243 -223 44 -43 85 -93
135 -166 12 -18 46 -67 74 -108 29 -41 62 -94 74 -117 12 -24 28 -50 35 -59 8
-9 23 -40 34 -70 10 -30 31 -81 45 -113 28 -64 41 -143 27 -164 -4 -6 -28 -14
-53 -17 -73 -9 -82 -13 -127 -55 -24 -22 -47 -40 -53 -40 -6 0 -8 -4 -5 -9 3
-5 -10 -18 -29 -30 -19 -11 -35 -25 -35 -30 0 -5 -9 -13 -20 -16 -11 -3 -20
-10 -20 -16 0 -5 -26 -36 -57 -70 -67 -70 -82 -98 -83 -155 0 -23 -6 -46 -13
-52 -29 -24 -126 23 -222 107 -79 69 -328 360 -368 430 -11 20 -34 53 -50 74
-16 20 -37 63 -46 95 -10 31 -28 76 -40 100 -12 24 -31 71 -41 105 -11 34 -28
76 -38 92 -11 17 -25 48 -32 70 -6 22 -25 67 -41 100 -17 37 -36 105 -49 180
-12 66 -33 164 -46 218 -14 54 -31 162 -39 240 -21 209 -30 703 -16 955 12
223 23 303 46 322 16 13 27 -3 55 -86 11 -30 39 -82 63 -116 24 -35 63 -96 87
-137 90 -155 269 -294 485 -376 38 -14 76 -32 85 -39 8 -8 44 -26 80 -41 36
-15 74 -32 85 -39 11 -7 45 -21 75 -31 30 -10 87 -32 125 -50 39 -18 82 -35
96 -38 14 -4 41 -18 60 -31 19 -14 55 -37 82 -51 26 -14 47 -29 47 -34 0 -4
24 -21 52 -36 29 -16 63 -39 76 -52 12 -13 35 -29 51 -37 15 -8 45 -30 65 -49
21 -19 45 -42 55 -50 18 -16 62 -67 119 -138 20 -25 57 -69 82 -98 46 -54 120
-160 120 -173 0 -3 38 -84 84 -180 46 -95 100 -225 121 -288 60 -184 87 -222
117 -167 20 35 78 178 93 227 8 25 27 65 43 90 16 25 34 60 40 78 11 31 71
144 154 289 20 34 61 94 91 135 72 97 277 301 328 326 22 11 50 30 62 42 22
22 67 55 120 87 16 10 52 33 80 52 61 39 207 105 292 131 69 21 217 88 277
126 22 14 65 34 94 44 143 50 343 204 434 336 65 93 124 236 149 357 24 121
33 136 60 103z m-6581 -251 c48 -21 73 -44 140 -135 30 -41 67 -91 82 -110 33
-44 96 -160 120 -220 20 -50 92 -196 169 -340 50 -94 65 -160 41 -175 -19 -11
-92 35 -190 119 -114 98 -168 138 -252 189 -35 21 -88 53 -118 72 -30 18 -102
61 -160 94 -129 75 -180 129 -191 205 -10 59 3 158 25 190 31 46 95 103 127
113 52 17 164 15 207 -2z m8700 -5 c152 -69 202 -199 133 -344 -17 -34 -40
-71 -53 -82 -13 -12 -111 -77 -218 -144 -294 -185 -359 -228 -435 -290 -58
-46 -142 -106 -203 -144 -27 -16 -22 26 12 112 47 117 141 317 165 351 11 15
58 101 106 191 48 91 105 188 127 217 49 64 118 122 167 139 55 20 149 17 199
-6z m-11042 -89 c123 -24 157 -45 322 -200 86 -80 369 -359 629 -620 365 -365
473 -479 473 -498 0 -28 -26 -83 -39 -83 -5 0 -24 -16 -43 -35 -42 -45 -110
-86 -145 -87 -16 0 -51 8 -80 19 -62 25 -137 29 -129 7 3 -8 0 -14 -7 -14 -7
0 -21 -16 -31 -35 -20 -36 -54 -64 -87 -70 -35 -7 -196 105 -319 222 -69 65
-194 156 -267 194 -57 29 -74 34 -126 31 -34 -1 -65 -6 -69 -10 -13 -13 -176
8 -222 27 -22 10 -63 38 -91 63 -27 24 -61 52 -75 61 -42 29 -168 156 -216
218 -71 92 -87 138 -92 256 -7 172 36 273 173 411 53 52 92 81 140 103 95 43
207 58 301 40z m12006 -548 c102 -100 138 -145 138 -173 0 -6 -32 -41 -71 -78
-39 -37 -76 -73 -83 -81 -6 -7 -21 -23 -34 -35 -13 -11 -68 -66 -123 -120 -79
-80 -99 -105 -99 -128 0 -25 50 -78 332 -359 182 -182 350 -343 372 -358 97
-66 253 -112 384 -112 100 0 244 39 339 91 40 22 84 40 99 40 20 0 61 -34 188
-159 88 -88 180 -174 204 -190 23 -17 42 -36 42 -43 0 -26 -44 -100 -69 -116
-14 -9 -58 -48 -97 -87 -128 -128 -297 -289 -361 -346 -34 -31 -87 -84 -118
-118 -30 -34 -94 -97 -142 -139 -48 -42 -119 -110 -158 -151 -115 -122 -402
-393 -453 -429 -56 -39 -66 -26 -57 76 10 122 6 838 -6 890 -20 91 -17 88
-594 663 -11 11 -158 156 -326 322 -296 292 -329 328 -329 361 0 8 93 109 206
223 114 114 251 255 304 313 54 58 126 128 159 155 33 28 88 83 122 123 87
101 91 101 231 -35z m-9776 -599 c77 -59 162 -148 170 -178 9 -39 -7 -63 -89
-135 -40 -34 -236 -229 -437 -434 -201 -205 -410 -415 -465 -467 -55 -52 -179
-174 -276 -270 -140 -139 -177 -182 -183 -209 -3 -18 -6 -117 -7 -220 0 -262
-11 -306 -62 -246 -44 53 -366 374 -385 384 -21 11 -46 70 -40 96 4 21 550
583 1218 1256 58 58 179 182 270 275 90 93 171 172 180 176 32 14 60 7 106
-28z m1414 -487 c54 -25 93 -53 141 -100 94 -93 104 -117 104 -258 0 -115 0
-117 -39 -192 -28 -56 -54 -89 -99 -129 l-61 -53 -141 -3 c-247 -6 -313 25
-399 191 l-49 95 5 84 c5 107 36 174 121 264 135 145 258 175 417 101z m6085
32 c174 -47 295 -177 325 -351 9 -50 9 -80 1 -121 -24 -113 -128 -242 -231
-284 -57 -23 -272 -26 -335 -4 -103 35 -196 146 -217 259 -14 76 0 191 33 259
32 68 133 169 202 204 91 46 152 57 222 38z m1432 -485 c34 -46 109 -124 121
-124 28 0 52 -40 52 -86 0 -44 -3 -49 -57 -97 -32 -29 -150 -142 -263 -252
-208 -203 -429 -413 -665 -630 -266 -246 -305 -272 -419 -279 -44 -3 -83 -9
-87 -13 -22 -23 -91 -274 -109 -396 -6 -43 -22 -115 -35 -160 -14 -45 -32
-127 -41 -182 -18 -112 -98 -377 -118 -395 -8 -6 -24 -39 -37 -73 -12 -34 -31
-74 -41 -89 -10 -15 -27 -52 -38 -82 -26 -77 -105 -208 -183 -306 -7 -8 -38
-47 -70 -87 -77 -97 -187 -206 -275 -273 -40 -30 -87 -66 -104 -80 -61 -49
-107 -74 -303 -164 -55 -25 -105 -46 -111 -46 -6 0 -31 -14 -57 -31 -35 -23
-71 -35 -154 -50 -162 -29 -263 -43 -269 -37 -3 4 1 14 10 25 8 10 33 41 56
68 24 29 47 73 57 105 12 41 30 69 73 115 64 67 77 94 59 127 -32 60 -179 196
-231 214 -10 4 -18 10 -18 15 0 5 -6 9 -14 9 -7 0 -19 7 -26 15 -7 8 -23 15
-35 15 -48 0 -38 87 26 214 49 97 95 160 210 287 108 119 177 184 207 193 12
4 27 16 32 27 6 10 34 34 63 52 29 19 59 42 67 52 8 10 34 26 58 36 46 20 63
45 41 60 -8 6 -49 8 -91 7 -69 -3 -81 -6 -102 -30 -16 -17 -40 -28 -68 -33
-48 -7 -244 -99 -297 -139 -19 -14 -39 -26 -44 -26 -12 0 -131 -85 -196 -140
-55 -47 -283 -271 -337 -331 -60 -68 -142 -185 -177 -254 -20 -38 -61 -122
-93 -185 -31 -63 -62 -122 -70 -130 -19 -22 -89 -194 -108 -265 -33 -125 -86
-364 -100 -455 -9 -52 -23 -129 -31 -170 -13 -58 -18 -186 -25 -572 -8 -439
-18 -625 -37 -674 -4 -12 -14 -6 -39 21 -29 32 -44 39 -118 54 -65 14 -92 25
-112 45 -15 14 -30 26 -34 26 -14 0 -39 114 -54 240 -8 69 -20 298 -26 510
-11 396 -21 538 -46 625 -7 28 -20 84 -28 125 -14 73 -62 203 -113 305 -14 28
-36 77 -49 110 -122 315 -170 399 -380 665 -75 94 -188 211 -211 216 -13 4
-30 19 -38 34 -8 15 -27 33 -43 39 -16 7 -35 24 -41 38 -7 14 -28 31 -51 40
-22 9 -42 24 -45 33 -6 17 -76 50 -107 50 -31 0 -48 12 -48 34 0 19 -11 25
-71 41 -53 15 -74 26 -82 42 -7 16 -27 26 -79 39 -38 9 -78 25 -87 36 -25 26
-74 38 -153 38 -64 0 -68 -1 -68 -23 0 -18 13 -29 65 -55 36 -17 65 -36 65
-42 0 -5 18 -19 39 -30 22 -11 46 -28 53 -38 7 -10 27 -27 43 -38 40 -25 195
-180 195 -194 0 -13 37 -54 136 -151 51 -50 84 -102 99 -152 9 -32 14 -64 11
-72 -3 -8 -23 -19 -45 -25 -21 -5 -52 -23 -68 -38 -94 -93 -173 -181 -173
-194 0 -7 -4 -18 -9 -23 -5 -6 -14 -26 -20 -47 -14 -42 1 -192 24 -243 7 -16
16 -44 19 -61 4 -17 24 -48 46 -70 22 -21 39 -45 40 -51 0 -7 5 -13 10 -13 19
0 10 -39 -10 -45 -20 -6 -156 10 -225 27 -22 5 -49 18 -60 28 -11 10 -47 29
-80 41 -33 12 -71 30 -85 40 -14 9 -52 27 -85 38 -32 11 -68 29 -79 39 -12 10
-43 27 -70 37 -27 10 -65 33 -85 51 -19 19 -40 34 -45 34 -6 0 -27 17 -48 38
-21 20 -55 52 -75 69 -52 45 -160 153 -208 208 -22 25 -52 58 -66 73 -15 15
-33 41 -42 57 -8 17 -31 54 -51 84 -20 29 -36 59 -36 65 0 7 -9 21 -21 32 -12
10 -35 46 -51 79 -17 33 -38 69 -48 80 -10 11 -27 49 -38 85 -11 36 -30 89
-41 118 -12 29 -28 97 -37 150 -17 110 -70 318 -120 472 -18 58 -45 164 -59
235 -32 156 -77 317 -91 322 -6 2 -23 -8 -38 -22 -15 -14 -28 -25 -30 -25 -14
0 -66 24 -66 30 0 4 -19 10 -42 14 -41 7 -193 87 -233 123 -11 10 -58 49 -105
87 -153 124 -283 244 -620 576 -190 187 -195 201 -99 322 20 26 45 69 55 95 9
26 22 54 27 61 30 40 126 -17 253 -150 38 -40 99 -100 134 -134 36 -33 88 -85
116 -115 28 -30 98 -97 155 -149 57 -52 108 -101 112 -107 8 -13 160 -166 263
-264 32 -31 84 -83 116 -116 45 -47 68 -62 115 -77 32 -10 65 -24 74 -32 9 -8
47 -25 85 -38 38 -13 89 -33 113 -45 56 -29 225 -88 303 -106 35 -7 126 -21
203 -30 77 -9 176 -22 220 -30 44 -7 107 -16 140 -20 106 -11 223 -35 272 -56
27 -12 76 -29 111 -40 35 -10 91 -32 126 -48 34 -17 69 -31 77 -31 9 0 42 -16
75 -36 32 -20 68 -40 79 -44 33 -13 158 -97 186 -124 15 -14 32 -26 39 -26 6
0 32 -19 56 -42 24 -24 52 -50 61 -59 10 -9 25 -25 34 -35 9 -10 25 -26 35
-35 29 -24 178 -189 188 -207 5 -10 19 -28 31 -42 28 -32 111 -168 120 -197 3
-13 33 -69 66 -125 101 -175 156 -290 178 -373 12 -44 49 -163 83 -265 33
-102 82 -271 108 -375 47 -188 80 -285 98 -285 18 0 53 113 108 340 14 58 38
139 54 180 15 41 39 109 53 150 39 117 84 234 110 287 14 26 28 59 32 73 4 14
20 50 35 81 15 30 35 80 45 109 10 30 38 81 62 114 24 33 60 89 80 125 98 178
141 234 310 402 125 123 196 184 277 238 59 40 115 75 125 79 9 3 39 19 66 35
114 67 423 182 565 211 41 8 174 26 295 41 397 47 470 65 731 180 297 131 307
138 528 375 48 52 289 299 534 547 l447 453 54 -4 c39 -2 58 -8 68 -22z
m-11472 -88 c33 -20 52 -40 66 -69 43 -96 8 -252 -63 -281 -57 -24 -116 -29
-186 -15 -56 10 -73 18 -101 48 -80 86 -81 189 -3 273 74 78 196 97 287 44z
m14122 -457 c43 -16 493 -480 493 -508 0 -16 -30 -41 -48 -41 -80 1 -133 42
-391 300 l-135 135 1 48 c2 72 22 88 80 66z m-13445 -631 c181 -182 334 -340
339 -351 6 -10 8 -29 5 -42 -7 -28 -186 -215 -206 -215 -20 1 -164 131 -282
255 -52 55 -142 145 -199 201 -170 165 -259 259 -267 282 -2 6 11 18 27 28 17
10 31 21 31 24 0 3 20 28 45 55 25 28 54 60 65 73 15 17 30 22 66 22 l47 0
329 -332z m13100 270 c35 -22 81 -59 103 -82 247 -252 344 -359 368 -404 36
-67 31 -82 -27 -82 -39 0 -53 6 -106 51 -93 78 -299 280 -306 301 -3 10 -19
25 -35 33 -16 9 -35 28 -44 44 -8 16 -28 34 -45 39 -17 6 -31 19 -31 29 -3 28
3 97 8 106 11 17 56 4 115 -35z m-355 -349 c31 -11 67 -43 157 -139 34 -35
105 -109 159 -164 103 -103 167 -188 167 -219 0 -9 -11 -22 -25 -29 -46 -21
-99 11 -225 134 -164 161 -261 250 -291 269 -15 10 -30 33 -38 59 -7 23 -15
48 -17 55 -14 35 54 56 113 34z m-11077 -334 c102 -52 213 -176 288 -322 59
-116 83 -261 83 -505 -1 -188 -15 -303 -52 -424 -25 -82 -80 -203 -122 -269
-103 -164 -343 -423 -434 -469 -68 -34 -94 -33 -132 5 -35 34 -34 36 25 119
44 61 95 171 143 305 21 61 62 162 90 226 49 112 52 124 71 285 29 246 29 401
1 486 -12 37 -28 73 -36 80 -15 14 -81 66 -163 129 -82 62 -107 142 -78 242
18 60 51 96 121 129 53 25 125 18 195 -17z m9335 1 c50 -27 101 -94 110 -144
14 -84 -46 -188 -137 -240 -73 -41 -131 -108 -153 -178 -15 -49 -17 -86 -12
-307 7 -354 37 -499 143 -686 104 -183 204 -394 198 -416 -10 -31 -35 -55 -58
-55 -49 0 -176 101 -301 239 -220 242 -250 289 -325 511 -45 131 -50 158 -60
285 -5 77 -12 163 -14 190 -2 28 0 79 5 115 5 36 13 101 18 145 6 45 23 114
39 155 16 41 37 96 46 121 20 56 131 178 210 233 99 68 203 79 291 32z m1399
-26 c17 -17 74 -72 126 -123 52 -51 155 -154 228 -229 128 -132 133 -139 130
-175 -3 -36 -5 -38 -40 -41 -20 -2 -51 4 -68 13 -17 9 -101 84 -187 167 -240
233 -273 267 -273 276 0 5 -11 14 -25 20 -32 15 -32 37 1 59 14 9 30 27 35 40
12 31 37 29 73 -7z m-614 -561 c54 -23 110 -84 136 -146 24 -56 13 -127 -34
-225 -22 -46 -43 -93 -46 -106 -22 -70 -108 -221 -147 -258 -54 -52 -77 -59
-138 -44 -103 25 -131 96 -132 335 0 165 6 215 41 307 49 132 192 192 320 137z
m-10943 0 c37 -14 100 -75 123 -119 23 -46 36 -109 51 -254 19 -193 -3 -321
-65 -361 -64 -42 -176 -22 -238 43 -58 60 -125 178 -158 277 -59 179 -60 247
-6 338 26 44 38 55 81 69 57 19 170 23 212 7z m-1569 -175 c74 -38 96 -76 95
-161 0 -53 -6 -71 -34 -119 -44 -73 -88 -110 -138 -119 -37 -6 -50 -2 -118 37
-101 57 -117 80 -121 171 -5 105 21 150 108 195 78 41 122 40 208 -4z m14111
2 c33 -17 61 -42 83 -73 42 -62 43 -110 1 -184 -25 -46 -39 -59 -94 -87 -56
-30 -71 -33 -120 -29 -73 6 -110 27 -154 83 -46 62 -49 125 -7 205 24 44 40
60 88 87 50 27 66 32 106 28 25 -3 69 -16 97 -30z m-13470 -716 c277 -23 407
-73 630 -243 102 -78 209 -190 295 -308 30 -40 68 -87 84 -104 16 -16 37 -47
47 -67 9 -21 25 -40 36 -43 24 -8 25 -32 2 -37 -10 -2 -24 -22 -33 -48 -12
-34 -21 -46 -40 -48 -36 -6 -98 16 -105 36 -5 19 -175 185 -237 233 -18 14
-47 33 -64 42 -17 9 -37 23 -44 32 -8 9 -41 30 -74 47 -34 17 -69 37 -78 45
-10 9 -68 29 -130 45 -211 56 -240 60 -428 55 -168 -4 -179 -5 -282 -39 -65
-22 -122 -47 -142 -64 -107 -90 -118 -97 -167 -102 -45 -4 -48 -3 -55 22 -5
20 -15 29 -36 33 -17 3 -36 17 -45 32 -9 14 -24 38 -34 53 -28 40 -23 77 19
146 44 72 136 157 225 206 69 39 158 57 372 75 141 12 156 12 284 1z m12968 0
c131 -12 210 -32 305 -80 172 -86 282 -228 259 -332 -10 -43 -65 -109 -113
-134 -39 -20 -94 -18 -110 4 -7 11 -24 25 -38 32 -14 7 -39 26 -56 42 -20 18
-68 42 -135 65 -102 36 -107 36 -294 41 l-190 4 -170 -42 c-137 -33 -186 -50
-250 -86 -196 -109 -291 -173 -355 -240 -25 -26 -63 -65 -86 -88 -23 -22 -44
-49 -47 -59 -9 -25 -30 -30 -84 -21 -44 9 -47 11 -63 59 -9 28 -15 57 -12 65
3 8 40 56 82 105 42 50 85 104 96 121 60 98 191 238 284 306 244 176 308 200
605 232 159 17 240 18 372 6z m-2554 -741 c38 -5 85 -18 105 -28 20 -10 107
-44 192 -76 251 -91 346 -143 502 -270 20 -16 58 -46 83 -65 61 -46 84 -69
166 -165 105 -123 125 -148 139 -175 7 -14 27 -43 44 -64 67 -85 164 -276 185
-363 15 -63 44 -103 74 -103 27 1 96 40 172 98 31 24 75 52 98 62 73 32 212
53 357 52 223 0 323 -34 495 -167 158 -123 218 -207 283 -400 96 -281 35 -601
-149 -787 -85 -86 -112 -90 -173 -25 -23 24 -65 58 -93 76 -29 18 -53 39 -53
47 0 7 26 51 57 96 76 111 82 132 83 269 0 155 -11 209 -61 286 -152 233 -398
308 -662 202 -70 -28 -92 -44 -162 -113 -44 -45 -103 -108 -130 -140 -102
-122 -134 -135 -212 -89 -51 29 -82 60 -83 81 0 6 -4 12 -8 12 -5 0 -22 30
-37 68 -123 296 -161 358 -320 517 -156 156 -214 187 -393 212 -222 31 -388
-7 -503 -114 -51 -47 -99 -131 -99 -173 0 -11 -7 -20 -15 -20 -8 0 -15 4 -15
9 0 10 -128 47 -195 56 -27 4 -81 21 -120 38 l-70 32 -312 3 c-321 4 -377 0
-508 -37 -38 -11 -99 -23 -135 -26 -61 -6 -133 -25 -172 -46 -10 -5 -30 -9
-45 -9 -25 0 -116 -32 -221 -77 -18 -8 -40 -12 -48 -9 -8 3 -14 2 -14 -3 0 -8
-184 -101 -201 -101 -9 0 -140 -77 -192 -112 -16 -11 -77 -47 -135 -80 -59
-33 -109 -64 -112 -67 -3 -4 -23 -18 -45 -31 -22 -13 -44 -29 -50 -35 -20 -22
-93 -75 -104 -75 -6 0 -11 -4 -11 -8 0 -5 -33 -31 -73 -59 -85 -60 -120 -89
-237 -198 -132 -123 -146 -134 -161 -124 -11 7 -11 9 -1 9 7 0 12 6 10 13 -1
6 10 31 25 54 15 24 27 47 27 53 0 5 9 24 20 42 11 18 20 40 20 49 0 9 6 22
14 28 8 7 18 26 21 42 4 16 11 29 16 29 5 0 9 5 9 11 0 15 95 212 138 284 81
138 190 301 258 385 82 101 293 323 322 339 31 16 96 68 200 160 40 35 90 76
111 90 22 14 72 49 111 76 40 28 84 57 99 65 14 8 40 24 56 36 17 12 55 32 85
46 30 14 70 37 89 52 19 14 40 26 46 26 6 0 33 14 61 32 27 17 76 42 109 55
33 13 71 30 85 37 14 7 57 21 95 31 39 9 111 30 160 46 50 16 125 39 168 50
43 11 100 28 126 39 73 28 160 41 336 50 177 8 374 4 478 -11z m-7572 0 c72
-7 122 -19 168 -38 36 -15 83 -31 104 -35 21 -4 72 -18 115 -32 42 -14 118
-36 169 -49 111 -29 257 -85 336 -131 32 -19 62 -34 66 -34 5 0 32 -16 60 -35
28 -19 74 -46 103 -60 81 -39 162 -87 197 -117 18 -16 36 -28 41 -28 5 0 29
-17 54 -37 24 -21 77 -63 117 -93 40 -30 87 -68 105 -85 17 -16 59 -52 92 -79
143 -115 435 -440 521 -581 28 -44 56 -89 64 -100 80 -114 132 -197 167 -271
23 -49 56 -115 72 -147 34 -68 80 -187 72 -187 -3 0 2 -10 10 -22 16 -23 22
-68 9 -68 -19 0 -150 112 -282 240 -17 17 -119 103 -160 136 -13 10 -65 56
-116 102 -51 45 -97 82 -103 82 -6 0 -12 4 -14 9 -1 5 -43 30 -93 56 -83 44
-177 98 -264 152 -94 57 -316 151 -412 173 -30 7 -88 23 -130 36 -41 13 -124
35 -185 48 -60 13 -136 33 -169 46 -97 35 -486 52 -744 30 -87 -7 -124 -15
-160 -33 -25 -13 -77 -30 -116 -37 -38 -7 -95 -21 -125 -30 -91 -30 -110 -32
-110 -15 0 8 -4 15 -9 15 -5 0 -18 20 -30 45 -36 77 -160 181 -243 206 -55 16
-248 22 -340 11 -100 -13 -188 -55 -313 -148 -86 -64 -129 -109 -189 -197 -50
-74 -197 -368 -216 -432 -6 -22 -16 -50 -22 -63 -24 -47 -189 -100 -225 -71
-9 8 -35 43 -58 79 -86 134 -192 229 -331 297 l-79 38 -130 0 -130 0 -95 -46
c-158 -77 -244 -188 -276 -359 -25 -129 -16 -224 30 -334 l38 -89 -22 -17
c-24 -18 -106 -26 -218 -22 -45 1 -72 8 -92 22 -27 19 -75 107 -107 195 -21
59 -28 238 -13 321 29 157 123 345 217 435 64 61 158 132 210 158 23 11 44 25
48 30 16 28 238 61 405 61 170 0 270 -21 367 -78 43 -26 107 -71 141 -99 35
-29 71 -53 82 -53 33 0 87 97 115 207 16 65 78 189 130 260 127 173 172 230
260 321 55 58 114 114 132 126 17 11 70 52 118 89 86 67 246 157 282 157 10 0
45 12 78 26 33 14 103 39 155 54 52 15 123 40 158 54 36 16 95 30 140 35 115
12 455 12 573 0z m-2709 -169 c125 -14 263 -67 384 -148 23 -15 73 -49 113
-75 51 -34 77 -58 87 -82 20 -50 18 -63 -17 -80 -18 -10 -37 -31 -45 -52 -11
-25 -26 -39 -54 -50 -25 -10 -37 -20 -33 -29 9 -25 -24 -15 -42 12 -9 14 -33
32 -53 41 -20 8 -46 23 -57 33 -11 10 -47 26 -80 35 -33 10 -82 26 -110 35
-146 51 -343 52 -485 2 -47 -16 -93 -33 -103 -37 -29 -12 -67 -98 -67 -152 0
-74 -34 -151 -88 -200 -53 -48 -99 -59 -187 -48 -78 9 -147 67 -181 150 -33
84 -32 148 7 240 26 64 43 85 127 167 112 108 164 145 269 188 125 52 400 74
615 50z m12862 -19 c154 -41 245 -98 372 -234 84 -90 124 -176 131 -282 4 -64
2 -75 -29 -135 -41 -80 -94 -121 -166 -128 -77 -7 -140 13 -197 63 l-50 44 -5
125 c-6 151 -7 153 -130 196 -117 41 -266 57 -390 41 -51 -6 -102 -17 -113
-22 -11 -6 -59 -24 -108 -39 -49 -15 -104 -39 -123 -53 -18 -14 -45 -29 -60
-33 -14 -3 -32 -18 -39 -33 -7 -14 -22 -27 -35 -29 -18 -3 -22 1 -22 23 0 18
-7 28 -27 36 -51 20 -57 25 -65 55 -4 17 -20 36 -38 46 -44 25 -40 56 15 107
24 22 50 41 56 41 6 0 25 12 43 26 60 49 162 108 244 140 70 28 150 46 307 68
17 2 102 3 190 1 122 -2 179 -8 239 -24z m-9658 -1370 c32 -10 102 -27 154
-36 52 -10 112 -26 132 -36 21 -11 86 -31 145 -45 60 -14 122 -33 138 -42 17
-8 66 -25 110 -37 78 -22 221 -90 258 -124 18 -15 70 -44 207 -112 36 -18 79
-43 95 -56 17 -14 44 -34 62 -46 97 -67 160 -112 174 -126 10 -9 43 -36 75
-61 32 -25 150 -137 262 -250 151 -152 218 -228 260 -293 31 -49 68 -105 80
-124 13 -20 28 -47 33 -60 14 -38 -17 -41 -54 -6 -38 36 -161 111 -197 120
-14 4 -31 12 -38 20 -17 17 -31 17 -38 -1 -4 -10 -18 -8 -67 12 -34 14 -83 26
-109 27 -26 1 -55 8 -65 17 -10 8 -31 20 -48 25 -16 6 -45 24 -64 42 -18 17
-39 31 -47 31 -8 0 -34 20 -58 45 -25 25 -49 45 -55 45 -5 0 -13 9 -16 20 -3
11 -12 20 -19 20 -8 0 -33 18 -57 40 -44 41 -201 150 -216 150 -4 0 -23 15
-43 34 -19 19 -75 55 -125 81 -49 26 -94 51 -100 55 -52 40 -155 68 -155 42 0
-15 33 -39 62 -46 15 -3 33 -12 40 -19 7 -7 32 -23 56 -35 24 -12 49 -27 55
-33 19 -17 78 -51 137 -80 68 -33 144 -107 129 -125 -8 -9 -4 -13 13 -16 17
-2 24 -11 26 -33 2 -16 10 -37 18 -46 19 -21 9 -29 -36 -29 -20 0 -40 -4 -46
-10 -5 -5 -38 -13 -72 -16 -34 -4 -62 -9 -62 -11 0 -7 44 -42 53 -43 16 0 66
-43 61 -52 -6 -9 -53 0 -70 13 -6 5 -14 6 -17 3 -3 -4 -28 5 -54 18 -26 14
-65 28 -87 32 -21 4 -46 11 -55 16 -46 25 -113 49 -171 63 -36 9 -90 23 -120
32 -98 27 -288 45 -500 46 -113 0 -316 4 -451 8 -200 6 -251 11 -275 24 -16 9
-77 28 -137 42 -59 13 -121 32 -137 40 -17 9 -67 29 -113 45 -99 35 -196 85
-263 134 -83 63 -210 192 -238 244 -5 9 -24 35 -41 57 -18 22 -40 55 -50 74
-9 18 -27 43 -39 55 -12 11 -31 47 -41 79 -16 50 -17 60 -4 68 22 15 102 3
156 -24 110 -56 372 -63 533 -14 47 14 123 33 170 42 47 9 117 29 155 45 41
17 114 36 174 45 58 9 109 19 115 23 29 17 146 30 292 31 132 1 171 -2 220
-18z m6507 -21 c92 -17 197 -41 234 -55 37 -14 108 -35 157 -45 48 -11 123
-32 165 -47 73 -27 84 -28 261 -28 171 0 188 2 225 22 22 11 67 29 99 38 52
15 60 15 73 2 13 -13 13 -20 -6 -63 -12 -27 -29 -56 -38 -66 -9 -10 -30 -46
-48 -80 -17 -35 -43 -84 -58 -110 -29 -48 -185 -212 -252 -263 -140 -106 -546
-241 -799 -265 -50 -5 -255 -11 -456 -14 -311 -5 -382 -8 -480 -26 -63 -12
-119 -25 -125 -29 -5 -5 -28 -11 -50 -14 -38 -6 -251 -79 -287 -98 -10 -5 -23
-9 -29 -9 -6 0 -25 -6 -42 -14 -58 -25 -79 -26 -102 -4 -30 29 -97 51 -107 35
-4 -7 -8 6 -8 29 0 32 7 48 30 72 17 18 30 40 30 51 0 11 19 34 48 54 26 19
57 49 70 66 15 21 31 31 48 31 23 0 25 4 22 32 -3 27 2 34 37 53 21 13 41 28
43 34 2 6 12 11 22 11 9 0 23 7 30 15 7 8 18 15 26 15 7 0 19 9 27 20 8 11 17
17 20 13 4 -3 7 -1 7 5 0 7 6 12 14 12 7 0 19 7 27 16 11 14 9 15 -27 9 -37
-7 -65 -19 -124 -52 -14 -8 -41 -22 -60 -31 -19 -9 -36 -20 -38 -24 -2 -5 -11
-8 -19 -8 -9 0 -52 -22 -95 -50 -43 -27 -81 -50 -84 -50 -3 0 -40 -23 -82 -52
-84 -56 -192 -154 -192 -173 0 -17 -31 -41 -63 -49 -15 -4 -31 -16 -35 -27 -7
-19 -30 -36 -78 -58 -12 -5 -28 -18 -35 -28 -8 -10 -23 -20 -34 -21 -11 -2
-27 -10 -36 -18 -8 -8 -21 -14 -27 -14 -6 0 -16 -8 -21 -19 -10 -17 -80 -37
-119 -34 -8 1 -22 -7 -33 -18 -10 -10 -28 -19 -38 -19 -11 0 -26 -3 -34 -6
-10 -3 -18 2 -22 15 -8 26 -69 30 -79 5 -4 -12 -13 -14 -32 -10 -17 5 -33 0
-51 -14 -14 -11 -33 -20 -41 -20 -9 0 -24 -8 -35 -17 -17 -15 -16 -11 5 27
108 192 100 180 251 344 156 168 386 367 570 493 18 12 46 33 62 46 17 14 57
38 90 55 33 16 94 46 135 67 41 20 80 45 87 54 6 10 34 26 60 36 26 9 64 28
83 40 19 13 62 31 96 39 34 9 85 26 115 40 30 13 88 31 129 40 41 10 100 29
131 42 33 15 130 39 235 59 250 47 420 48 657 5z m2346 -778 c5 -10 17 -72 25
-137 47 -344 46 -375 -13 -609 -30 -118 -55 -189 -96 -275 -49 -101 -65 -124
-134 -191 -43 -42 -109 -98 -146 -125 -72 -51 -225 -115 -275 -115 -25 0 -30
4 -30 25 0 30 19 69 65 134 77 108 124 227 176 441 12 47 30 113 41 148 22 71
15 92 -31 92 -55 0 -169 -162 -330 -468 -96 -182 -149 -264 -254 -389 -57 -69
-136 -133 -163 -133 -8 0 1 58 20 128 8 29 22 121 31 204 9 83 17 154 19 157
2 3 18 75 35 159 37 178 89 330 141 410 68 106 243 269 355 333 22 12 49 30
60 39 40 34 203 111 315 149 130 44 175 50 189 23z m-11597 -22 c136 -38 247
-90 367 -171 52 -35 109 -74 128 -87 88 -59 224 -219 306 -360 45 -77 60 -135
87 -332 11 -85 29 -219 40 -296 11 -78 20 -160 20 -183 0 -26 10 -60 25 -89
39 -73 29 -127 -12 -65 -10 14 -66 73 -124 130 -83 80 -119 125 -164 201 -32
53 -65 108 -75 122 -9 14 -45 83 -79 153 -35 71 -75 143 -90 160 -14 18 -39
50 -54 72 -54 81 -118 146 -141 143 -43 -6 -31 -105 39 -313 70 -208 115 -317
150 -365 36 -49 78 -144 68 -154 -37 -37 -248 76 -406 216 -80 71 -138 145
-187 238 -20 37 -41 74 -48 82 -17 21 -49 164 -67 303 -14 102 -14 145 -4 285
8 119 8 181 0 223 -11 60 -3 100 21 110 31 13 101 5 200 -23z m3828 -334 c0
-2 3 -11 6 -20 4 -10 1 -16 -9 -16 -17 0 -40 24 -30 33 7 8 33 10 33 3z m3840
-40 c0 -3 -4 -8 -10 -11 -5 -3 -10 -1 -10 4 0 6 5 11 10 11 6 0 10 -2 10 -4z
m-3797 -23 c-7 -2 -21 -2 -30 0 -10 3 -4 5 12 5 17 0 24 -2 18 -5z m36 -19
c17 -4 36 -15 42 -25 8 -17 6 -19 -22 -19 -28 0 -30 2 -18 16 11 14 10 16 -11
14 -45 -4 -70 0 -70 10 0 11 33 13 79 4z m-5395 -78 c124 -24 275 -75 381
-128 145 -73 270 -171 435 -343 207 -215 386 -388 455 -441 183 -139 442 -282
720 -399 50 -20 147 -62 217 -91 70 -30 129 -54 132 -54 3 0 29 -11 58 -25 29
-14 91 -38 137 -53 47 -16 87 -34 89 -40 7 -21 -144 -14 -263 12 -61 13 -138
29 -173 35 -61 12 -227 65 -487 157 -71 25 -173 60 -225 78 -149 52 -474 214
-645 321 -38 24 -94 59 -123 76 -30 18 -105 81 -168 140 -150 143 -246 191
-274 139 -14 -26 6 -81 56 -157 51 -78 231 -290 295 -347 57 -51 218 -164 349
-245 107 -66 170 -112 183 -132 10 -16 7 -27 -12 -59 -5 -8 -12 -23 -15 -32
-11 -36 -176 -19 -367 37 -195 57 -446 214 -567 353 -192 222 -210 253 -271
457 -31 108 -45 179 -60 315 -29 260 -36 406 -21 425 16 19 66 19 164 1z
m14552 4 l27 -11 -6 -132 c-8 -174 -33 -388 -59 -512 -21 -103 -80 -236 -149
-341 -85 -128 -243 -290 -362 -371 -23 -15 -58 -40 -77 -55 -95 -73 -342 -156
-545 -183 -136 -18 -149 -16 -153 16 -2 20 7 38 37 70 23 23 41 45 41 49 0 4
71 55 158 115 317 219 431 328 586 560 15 22 37 55 49 72 38 56 67 104 67 112
0 12 -48 31 -79 31 -34 0 -84 -36 -184 -133 -132 -127 -308 -257 -463 -342
-38 -21 -100 -55 -139 -76 -136 -75 -278 -139 -353 -159 -94 -26 -369 -118
-397 -133 -11 -6 -54 -21 -95 -33 -41 -12 -100 -31 -130 -42 -120 -44 -461
-99 -460 -74 1 4 33 22 73 41 141 66 293 134 362 161 204 80 464 203 542 259
16 10 96 63 178 116 156 102 207 147 395 355 170 189 303 315 405 386 200 141
267 172 490 230 137 35 196 41 241 24z m-10238 -95 c67 -8 142 -22 165 -31 23
-9 86 -27 140 -40 54 -13 116 -33 138 -45 22 -11 77 -29 121 -40 45 -11 102
-31 127 -44 25 -12 66 -29 91 -36 25 -7 50 -16 55 -20 6 -4 77 -42 158 -83 82
-42 163 -87 180 -100 18 -13 52 -34 77 -46 25 -12 52 -28 60 -36 9 -7 40 -26
70 -42 132 -68 270 -170 270 -199 0 -24 -43 -11 -155 50 -55 29 -152 78 -215
107 -63 30 -142 72 -174 92 -33 21 -63 38 -68 38 -4 0 -26 13 -48 29 -22 16
-64 35 -93 41 -28 7 -88 24 -132 37 -43 13 -143 34 -220 48 -78 13 -161 32
-186 41 -50 19 -241 30 -316 19 l-48 -7 25 -19 c14 -10 30 -23 37 -29 7 -5 16
-10 22 -10 5 0 11 -7 15 -15 3 -8 2 -15 -3 -15 -13 0 -7 -40 7 -49 9 -6 8 -12
-7 -26 -22 -19 -51 -21 -271 -16 -69 1 -165 -2 -215 -9 -147 -18 -390 -108
-485 -178 -52 -38 -64 -50 -195 -184 -206 -211 -241 -244 -285 -267 l-42 -22
-33 21 c-114 71 -108 386 12 598 72 128 217 265 350 330 32 16 72 36 88 45
108 60 316 115 495 131 83 7 364 -3 488 -19z m6487 -8 c67 -16 211 -76 294
-122 269 -149 409 -309 477 -546 37 -131 36 -217 -5 -328 -31 -85 -54 -121
-76 -121 -7 0 -28 19 -47 43 -46 56 -241 250 -309 308 -30 25 -81 63 -114 84
-33 21 -62 41 -65 46 -9 13 -180 89 -229 101 -25 6 -50 14 -56 18 -15 12 -162
47 -250 60 -44 7 -90 16 -103 21 -13 5 -31 9 -41 9 -10 0 -24 12 -32 27 -8 15
-22 35 -31 45 -24 24 -23 44 3 61 l20 15 -23 16 c-18 13 -49 16 -158 15 -74 0
-160 -4 -190 -9 -130 -18 -419 -72 -460 -85 -25 -8 -95 -28 -156 -44 -76 -21
-146 -49 -226 -91 -64 -33 -154 -73 -201 -89 -46 -16 -122 -50 -168 -75 -177
-98 -202 -106 -159 -49 19 27 325 211 377 227 11 4 28 18 37 31 9 14 22 25 29
25 7 0 52 20 99 44 48 25 106 50 129 56 24 7 54 21 68 31 13 11 56 29 95 40
39 12 87 32 107 45 21 15 66 30 110 38 41 7 101 26 134 43 33 17 83 34 110 38
28 4 82 20 120 36 55 23 100 32 210 44 181 18 592 14 680 -8z m-868 -1133
c125 -32 373 -129 460 -179 42 -25 139 -44 223 -45 59 0 120 -18 120 -34 0
-12 -101 -56 -127 -56 -5 0 -20 -11 -33 -25 -13 -14 -29 -25 -35 -25 -6 0 -44
-16 -84 -36 -146 -72 -253 -88 -364 -55 -40 12 -79 26 -87 32 -8 5 -21 12 -28
16 -23 10 -69 57 -75 76 -4 9 -15 17 -26 17 -13 0 -18 5 -15 13 2 7 -4 22 -16
32 -11 10 -20 23 -20 29 0 14 -38 48 -70 63 -57 26 -157 36 -420 40 -151 2
-275 7 -274 11 3 20 180 90 334 132 123 34 393 31 537 -6z m-4922 6 c137 -33
308 -94 363 -129 77 -50 71 -64 -15 -34 -39 14 -86 17 -248 17 -185 1 -206 -1
-278 -23 -60 -19 -89 -35 -124 -68 -25 -24 -49 -43 -53 -43 -4 0 -10 -9 -13
-21 -3 -12 -10 -18 -17 -14 -6 4 -9 1 -8 -7 2 -7 -2 -12 -9 -11 -7 2 -34 -19
-62 -45 -91 -86 -123 -112 -137 -112 -8 0 -14 -6 -14 -14 0 -19 -44 -30 -115
-27 -74 3 -128 21 -225 73 -41 22 -102 55 -135 72 -33 18 -78 44 -100 59 -22
14 -55 31 -72 38 -32 11 -43 32 -24 44 5 3 56 10 113 15 84 8 116 16 173 44
242 117 366 166 490 195 22 5 128 9 235 10 161 1 209 -2 275 -19z m3267 -1521
c16 -19 17 -81 18 -849 0 -526 -4 -831 -10 -835 -16 -10 -67 22 -91 57 -30 44
-77 98 -158 183 -219 228 -473 500 -520 554 -30 35 -68 69 -84 76 -33 14 -67
9 -68 -9 0 -6 0 -200 1 -432 1 -510 13 -469 -138 -469 -73 0 -104 4 -117 15
-17 14 -18 45 -14 565 2 302 -1 674 -5 825 -7 218 -6 281 4 300 l13 23 43 -49
c25 -27 72 -83 106 -124 34 -41 106 -122 161 -179 54 -57 110 -120 125 -140
15 -19 74 -83 132 -141 58 -59 143 -148 189 -199 86 -95 143 -133 165 -111 8
8 11 145 11 470 0 362 3 462 13 472 15 15 110 28 167 22 24 -3 47 -13 57 -25z
m2271 -1 c16 -19 17 -67 17 -703 0 -610 2 -684 16 -696 11 -9 82 -14 267 -19
167 -4 259 -10 273 -18 21 -11 22 -17 17 -119 -6 -148 -6 -150 -51 -162 -76
-22 -777 -6 -806 18 -15 12 -16 82 -15 770 1 773 5 911 27 933 16 16 110 27
182 21 39 -3 60 -10 73 -25z m4434 5 c13 -17 6 -48 -29 -118 -32 -63 -106
-289 -153 -465 -44 -164 -67 -230 -134 -380 -29 -63 -76 -198 -106 -300 -29
-102 -67 -221 -84 -265 -16 -44 -37 -106 -45 -137 -18 -61 -27 -72 -54 -64
-37 12 -136 186 -186 326 -36 100 -76 182 -152 316 -35 61 -75 143 -89 184
-31 92 -39 102 -84 98 -33 -3 -39 -8 -78 -78 -62 -111 -121 -233 -160 -335
-19 -49 -71 -160 -115 -245 -45 -85 -94 -180 -110 -210 -58 -111 -90 -103
-113 30 -19 109 -73 271 -147 439 -38 88 -72 189 -99 295 -45 174 -87 308
-144 456 -72 189 -135 382 -135 415 0 24 6 38 19 45 26 13 185 13 234 -1 35
-9 41 -17 81 -102 23 -51 48 -105 54 -122 14 -38 86 -272 106 -345 8 -30 38
-120 65 -200 46 -133 73 -180 102 -180 16 0 47 42 64 88 31 87 103 267 140
352 42 96 114 265 152 355 26 62 68 125 83 125 19 0 39 -33 60 -97 12 -38 57
-138 100 -223 42 -85 81 -166 85 -180 4 -14 28 -72 55 -130 26 -58 65 -142 85
-187 32 -70 42 -83 62 -83 31 0 79 67 99 139 35 124 88 293 129 411 24 69 53
157 65 195 27 88 68 172 89 181 52 24 269 22 288 -3z m-12911 7 c37 -13 49
-33 79 -126 14 -40 55 -137 93 -216 38 -79 84 -188 101 -243 40 -128 95 -275
123 -328 12 -23 66 -152 120 -287 55 -135 122 -300 150 -368 27 -67 48 -130
46 -139 -2 -11 -18 -21 -42 -27 -53 -12 -237 6 -268 26 -19 13 -36 50 -72 163
-27 81 -58 158 -70 172 -16 18 -38 28 -76 34 -67 12 -482 1 -528 -13 -32 -10
-67 -61 -87 -128 -4 -14 -29 -71 -57 -127 -42 -86 -54 -103 -81 -113 -78 -28
-282 -24 -294 6 -5 14 49 161 120 329 16 39 49 117 73 174 24 57 69 178 100
269 31 91 84 224 118 296 74 154 70 143 136 361 71 234 88 269 140 288 26 10
146 7 176 -3z m1443 0 c248 -19 336 -55 465 -190 92 -97 132 -158 156 -241 41
-137 18 -376 -47 -473 -14 -22 -71 -84 -125 -137 -107 -104 -111 -115 -68
-164 9 -11 28 -38 41 -60 13 -22 52 -76 88 -120 35 -44 84 -111 109 -150 25
-38 61 -93 79 -122 19 -29 32 -57 29 -62 -12 -18 -73 -23 -174 -14 -124 12
-142 24 -224 146 -131 196 -224 307 -282 335 -66 33 -214 25 -217 -11 0 -7 -2
-108 -3 -226 -2 -196 -4 -215 -21 -227 -23 -17 -216 -20 -246 -4 -19 10 -19
30 -19 848 0 655 3 842 13 854 6 9 23 19 37 21 50 9 278 7 409 -3z m1526 -11
c130 -13 195 -32 275 -79 147 -88 345 -299 390 -415 45 -117 69 -354 51 -500
-22 -183 -48 -249 -145 -372 -118 -149 -268 -248 -476 -314 l-105 -34 -262 0
c-202 0 -265 3 -275 13 -11 11 -12 172 -10 845 3 727 6 835 19 856 l15 24 212
-7 c116 -4 256 -11 311 -17z m1709 5 c21 -20 23 -251 4 -277 -11 -14 -42 -16
-211 -19 -172 -3 -200 -5 -211 -20 -9 -12 -11 -66 -10 -190 1 -95 3 -176 3
-179 2 -15 43 -21 178 -28 94 -4 147 -11 155 -19 16 -16 13 -249 -2 -267 -6
-8 -65 -15 -158 -19 -199 -10 -196 -8 -188 -135 3 -53 2 -121 -2 -152 -9 -63
-2 -93 25 -104 10 -4 107 -10 216 -14 160 -5 200 -9 207 -21 6 -8 9 -73 7
-143 -1 -101 -5 -130 -17 -137 -30 -19 -689 -2 -713 19 -13 10 -14 130 -13
844 2 457 6 840 10 849 4 9 20 19 34 21 15 2 172 5 349 6 280 1 324 -1 337
-15z m-6133 -8 c99 -18 157 -44 224 -102 60 -52 72 -87 34 -99 -12 -4 -54 -38
-94 -76 -62 -60 -77 -69 -109 -69 -20 0 -56 10 -78 21 -59 30 -182 37 -268 14
-146 -38 -247 -105 -306 -202 -79 -130 -109 -231 -108 -358 0 -200 120 -401
288 -484 99 -48 182 -64 316 -58 63 3 123 8 133 12 29 12 37 48 37 176 0 106
-7 146 -27 169 -3 3 -65 7 -138 10 -106 4 -138 8 -151 21 -12 13 -17 42 -20
117 -7 151 -28 142 315 142 158 0 291 -4 305 -10 l26 -10 0 -359 c0 -197 -3
-373 -6 -390 -5 -26 -18 -38 -79 -71 -41 -22 -124 -57 -187 -78 -112 -37 -115
-37 -273 -36 -147 0 -167 2 -245 28 -322 105 -534 344 -585 659 -28 170 -15
357 34 499 48 140 80 189 195 303 150 149 254 206 423 235 77 13 261 10 344
-4z m8949 4 c101 -15 163 -37 230 -81 96 -64 113 -109 52 -140 -15 -7 -47 -34
-72 -59 -25 -25 -62 -53 -82 -63 -37 -17 -38 -17 -90 10 -47 25 -66 28 -165
31 -122 4 -178 -7 -288 -57 -63 -29 -165 -113 -165 -137 0 -7 -14 -29 -30 -48
-28 -31 -65 -122 -91 -221 -15 -57 -6 -203 16 -244 9 -19 25 -58 35 -87 36
-104 146 -224 251 -274 83 -39 178 -53 323 -48 128 5 185 22 187 56 4 133 3
251 -2 269 -11 31 -56 41 -206 46 -87 2 -137 8 -147 17 -24 19 -23 222 1 241
12 11 81 16 297 21 270 6 346 2 369 -21 7 -7 10 -128 8 -373 -3 -421 -1 -411
-91 -461 -30 -17 -107 -46 -170 -65 -149 -44 -336 -55 -470 -28 -134 28 -302
105 -367 170 -14 14 -29 26 -34 26 -17 0 -75 58 -125 126 -78 105 -139 233
-170 354 -35 137 -30 264 14 417 44 150 146 325 234 402 73 64 236 169 289
186 123 41 318 56 459 35z m2640 -16 c180 -41 433 -260 514 -447 88 -200 104
-465 41 -682 -68 -235 -275 -443 -531 -535 -131 -47 -263 -52 -403 -16 -103
26 -209 74 -291 129 -114 78 -271 261 -306 359 -30 83 -54 248 -54 372 0 177
42 353 107 448 97 142 240 271 364 327 61 27 175 54 274 64 64 7 215 -3 285
-19z m-7369 -2424 c23 -12 44 -32 50 -48 7 -17 9 -137 7 -333 -3 -347 -4 -349
-66 -324 -21 8 -53 32 -72 53 -49 54 -278 253 -322 280 -70 43 -78 21 -78
-226 0 -93 -4 -172 -10 -183 -18 -32 -64 -25 -91 14 -13 17 -28 35 -34 39 -6
5 -11 122 -13 340 -3 377 -5 368 66 360 40 -4 54 -15 199 -158 86 -85 160
-154 164 -154 5 0 24 -14 44 -31 55 -48 59 -36 65 169 5 172 14 222 41 222 5
0 28 -9 50 -20z m1805 -16 c48 -24 57 -59 21 -92 -20 -19 -28 -20 -57 -12 -19
6 -66 10 -103 10 l-68 0 -15 -35 c-19 -46 -18 -79 4 -96 9 -8 58 -35 107 -59
119 -57 200 -136 210 -204 10 -67 -2 -114 -41 -160 -19 -22 -34 -43 -34 -47 0
-3 -15 -13 -32 -20 -43 -18 -323 -20 -354 -2 -25 14 -64 84 -64 114 0 34 44
42 126 24 40 -9 78 -23 84 -31 17 -20 57 -17 110 9 40 20 45 26 48 61 5 57
-47 108 -140 136 -38 11 -93 36 -123 55 -62 40 -71 64 -68 178 3 80 31 142 71
159 103 42 246 47 318 12z m879 11 c58 -15 95 -38 95 -58 0 -5 -14 -31 -32
-58 -29 -45 -34 -49 -72 -49 -32 0 -45 6 -62 27 -18 23 -29 27 -77 27 -41 1
-60 -4 -74 -17 -10 -10 -39 -31 -65 -47 -26 -16 -54 -43 -63 -60 -21 -41 -29
-114 -21 -184 6 -46 15 -66 52 -111 25 -30 51 -55 59 -55 7 0 27 -11 43 -25
41 -35 81 -32 145 9 64 42 127 55 162 32 45 -29 25 -100 -38 -143 -37 -24
-148 -57 -192 -56 -55 1 -179 44 -233 81 -91 62 -138 120 -152 188 -19 91 -9
279 18 330 32 62 121 139 189 162 74 26 232 29 318 7z m2264 2 c15 -19 26
-698 11 -727 -14 -26 -78 -28 -110 -2 -23 18 -23 22 -22 223 1 404 4 454 30
488 25 34 70 42 91 18z m1895 -2 c38 -8 79 -21 92 -30 21 -13 22 -20 17 -67
-3 -29 -11 -56 -17 -60 -6 -4 -31 -8 -56 -8 -49 0 -59 5 -76 35 -9 17 -23 21
-82 23 -80 3 -112 -8 -182 -64 -51 -41 -60 -55 -89 -141 -27 -80 -26 -96 5
-163 35 -76 55 -95 140 -130 101 -42 153 -41 222 5 78 53 71 81 -26 106 -69
17 -76 27 -66 86 9 46 11 48 49 55 50 9 148 10 169 2 37 -14 63 -239 38 -328
-13 -48 -19 -52 -101 -66 -43 -7 -75 -20 -95 -37 -26 -22 -36 -24 -75 -19 -25
3 -54 15 -65 25 -12 11 -50 27 -85 36 -111 28 -218 125 -242 218 -18 72 -8
303 15 347 25 46 93 128 120 142 83 45 260 60 390 33z m-9021 -14 c9 -9 12
-85 12 -289 0 -295 3 -317 48 -326 12 -3 70 -7 129 -9 87 -3 112 -7 128 -22
25 -23 26 -61 1 -75 -29 -15 -434 -13 -449 2 -16 16 -17 690 -1 720 9 18 18
20 65 16 30 -3 60 -10 67 -17z m3028 3 c133 -30 237 -132 264 -260 17 -78 19
-190 5 -248 -22 -97 -139 -196 -255 -217 -98 -18 -430 -18 -447 -1 -10 10 -14
87 -16 337 -2 178 1 338 6 357 11 42 24 45 220 47 107 1 174 -4 223 -15z
m3541 5 c129 -27 168 -80 167 -225 -1 -121 -13 -154 -76 -208 -54 -46 -65 -49
-193 -62 -86 -8 -110 -24 -110 -72 1 -20 7 -48 15 -62 24 -42 19 -79 -12 -91
-37 -14 -153 -5 -164 12 -11 18 -11 291 0 344 6 29 9 0 10 -105 1 -80 6 -152
11 -160 5 -8 10 -13 11 -10 1 3 4 144 8 315 l6 309 25 13 c32 16 229 17 302 2z
m1580 -1 c26 -21 28 -66 21 -395 -7 -339 -8 -344 -58 -312 -79 50 -116 80
-225 184 -116 111 -195 165 -242 165 -21 0 -21 -10 -18 -222 2 -126 0 -138
-19 -157 -24 -24 -40 -26 -65 -8 -16 11 -17 43 -20 365 -3 381 -2 387 47 360
14 -7 85 -70 157 -141 73 -70 158 -144 188 -164 83 -55 86 -50 92 144 4 115 9
165 19 176 16 20 99 23 123 5z m-2537 -43 c11 -22 35 -62 53 -89 17 -28 32
-55 32 -62 0 -7 11 -26 25 -43 14 -16 35 -56 45 -87 11 -32 27 -68 35 -80 8
-13 26 -53 40 -90 14 -36 41 -92 60 -124 39 -64 45 -105 17 -114 -18 -6 -115
8 -132 19 -5 3 -16 28 -25 55 -24 74 -46 84 -180 88 -146 5 -177 -6 -227 -78
-48 -70 -73 -90 -110 -90 -25 0 -61 12 -77 26 -2 2 5 23 17 46 11 24 29 63 39
88 10 24 27 56 39 70 42 52 171 294 194 365 7 22 22 54 33 70 59 87 90 95 122
30z m-4651 3 c7 -13 52 -99 100 -192 47 -93 95 -181 106 -196 10 -14 28 -51
40 -80 12 -29 29 -65 39 -79 40 -58 54 -150 27 -186 -13 -18 -15 -17 -59 4
-53 26 -57 30 -94 100 -44 85 -65 95 -197 99 -161 5 -175 0 -210 -76 -24 -51
-37 -66 -71 -82 -48 -23 -74 -25 -100 -7 -17 13 -15 20 40 133 31 65 66 146
77 178 21 63 87 187 118 221 10 11 28 40 40 65 46 90 71 120 101 120 19 0 33
-8 43 -22z m-1743 -295 c25 -24 21 -65 -8 -79 -20 -10 -1839 -18 -1891 -9 -19
4 -39 16 -48 31 -16 23 -16 26 6 49 12 13 34 26 49 28 14 2 441 4 948 3 l922
-1 22 -22z m12560 -3 c25 -25 28 -33 19 -50 -6 -11 -23 -23 -38 -27 -38 -10
-1888 -10 -1934 0 -29 6 -39 14 -44 33 -8 32 11 53 57 64 19 4 456 8 972 9
l939 1 29 -30z"/>
<path d="M8032 20199 c-43 -22 -106 -81 -129 -122 -17 -30 -16 -140 1 -182 41
-97 109 -145 203 -145 73 0 127 24 174 77 46 51 62 100 57 172 -5 72 -47 136
-122 186 -64 42 -118 46 -184 14z"/>
<path d="M17165 13940 c3 -5 8 -10 11 -10 2 0 4 5 4 10 0 6 -5 10 -11 10 -5 0
-7 -4 -4 -10z"/>
<path d="M17081 13897 c-6 -6 -29 -16 -49 -22 -26 -7 -38 -17 -40 -32 -3 -19
-1 -20 36 -10 27 7 38 15 35 24 -3 7 2 13 10 13 8 0 18 7 21 16 8 22 3 27 -13
11z"/>
<path d="M16918 13803 c-10 -2 -18 -9 -18 -15 0 -5 7 -8 15 -4 8 3 15 0 15 -7
0 -8 4 -6 10 3 18 28 14 33 -22 23z"/>
<path d="M16890 13759 c0 -5 5 -7 10 -4 6 3 10 8 10 11 0 2 -4 4 -10 4 -5 0
-10 -5 -10 -11z"/>
<path d="M12054 13989 c-7 -12 25 -39 47 -39 11 0 22 -7 25 -15 4 -8 17 -15
29 -15 13 0 25 -3 27 -7 5 -12 84 -53 102 -53 29 0 17 16 -31 43 -27 14 -56
35 -65 46 -10 12 -27 21 -37 21 -11 0 -22 4 -25 9 -7 11 -66 20 -72 10z"/>
<path d="M12315 13850 c-3 -5 -1 -10 4 -10 6 0 11 5 11 10 0 6 -2 10 -4 10 -3
0 -8 -4 -11 -10z"/>
<path d="M12350 13826 c0 -9 5 -16 10 -16 6 0 10 4 10 9 0 6 -4 13 -10 16 -5
3 -10 -1 -10 -9z"/>
<path d="M9413 8518 c-11 -13 -26 -34 -34 -48 -15 -29 -103 -281 -125 -358
-24 -82 -23 -82 181 -82 96 0 180 3 189 6 35 13 20 91 -54 274 -91 228 -112
256 -157 208z"/>
<path d="M10858 8821 c-70 -14 -68 -4 -68 -301 0 -246 1 -268 18 -283 16 -14
43 -17 163 -17 130 0 149 2 194 24 92 42 145 142 145 271 0 42 -6 90 -14 108
-21 52 -103 134 -159 161 -79 38 -193 53 -279 37z"/>
<path d="M12276 8810 c-16 -5 -33 -15 -37 -21 -4 -7 -5 -251 -3 -543 3 -479 5
-531 20 -539 28 -16 223 -2 284 21 107 38 156 67 216 127 67 66 101 124 133
230 49 158 35 294 -45 455 -62 125 -143 193 -293 248 -73 26 -224 39 -275 22z"/>
<path d="M19314 8781 c-107 -26 -175 -64 -236 -129 -120 -130 -174 -298 -149
-463 16 -106 36 -159 90 -241 61 -94 124 -151 213 -193 145 -70 282 -74 413
-12 42 21 91 49 109 63 77 65 158 205 191 334 31 117 13 213 -72 388 -56 115
-118 182 -206 222 -114 52 -228 62 -353 31z"/>
<path d="M12875 6547 c-19 -14 -20 -29 -23 -209 -5 -236 2 -273 56 -295 27
-11 55 -14 105 -9 79 7 119 22 165 61 55 46 67 79 66 181 -1 135 -22 175 -124
242 -50 32 -63 36 -140 40 -65 3 -90 0 -105 -11z"/>
<path d="M16505 6546 c-20 -15 -44 -92 -45 -147 0 -40 48 -114 81 -124 26 -9
112 21 135 47 15 16 19 35 18 87 -1 76 -22 127 -60 141 -37 14 -107 12 -129
-4z"/>
<path d="M15636 6346 c-39 -48 -44 -67 -22 -85 22 -18 81 -25 105 -12 25 14
26 32 5 94 -20 60 -40 61 -88 3z"/>
<path d="M11005 6335 c-5 -2 -22 -6 -37 -9 -21 -5 -28 -12 -28 -29 0 -35 19
-47 75 -47 53 0 75 12 75 41 0 35 -44 58 -85 44z"/>
</g>
</svg>
