<?xml version="1.0" standalone="no"?>
<!DOCTYPE svg PUBLIC "-//W3C//DTD SVG 20010904//EN"
 "http://www.w3.org/TR/2001/REC-SVG-20010904/DTD/svg10.dtd">
<svg version="1.0" xmlns="http://www.w3.org/2000/svg"
 width="936.000000pt" height="936.000000pt" viewBox="0 0 936.000000 936.000000"
 preserveAspectRatio="xMidYMid meet">
<metadata>
Created by potrace 1.14, written by Peter Selinger 2001-2017
</metadata>
<g transform="translate(0.000000,936.000000) scale(0.100000,-0.100000)"
fill="#000000" stroke="none">
<path d="M4365 7870 c4 -6 -32 -10 -99 -10 -64 0 -106 -4 -106 -10 0 -6 -30
-10 -70 -10 -40 0 -70 -4 -70 -10 0 -6 -27 -10 -60 -10 -33 0 -60 -4 -60 -10
0 -5 -18 -10 -40 -10 -22 0 -40 -4 -40 -10 0 -5 -18 -10 -40 -10 -22 0 -40 -4
-40 -10 0 -5 -13 -10 -30 -10 -16 0 -30 -4 -30 -10 0 -5 -18 -10 -40 -10 -22
0 -40 -4 -40 -10 0 -5 -13 -10 -30 -10 -16 0 -30 -4 -30 -10 0 -5 -13 -10 -30
-10 -16 0 -30 -4 -30 -10 0 -5 -9 -10 -20 -10 -11 0 -20 -4 -20 -10 0 -5 -13
-10 -30 -10 -16 0 -30 -4 -30 -10 0 -5 -9 -10 -20 -10 -11 0 -20 -4 -20 -10 0
-5 -13 -10 -30 -10 -16 0 -30 -4 -30 -10 0 -5 -9 -10 -20 -10 -11 0 -20 -4
-20 -10 0 -5 -9 -10 -20 -10 -11 0 -20 -4 -20 -10 0 -5 -9 -10 -20 -10 -11 0
-20 -4 -20 -10 0 -5 -9 -10 -20 -10 -11 0 -20 -4 -20 -10 0 -5 -9 -10 -20 -10
-11 0 -20 -4 -20 -10 0 -5 -9 -10 -20 -10 -11 0 -20 -4 -20 -10 0 -5 -8 -10
-18 -10 -10 0 -24 -9 -32 -20 -8 -11 -22 -20 -32 -20 -10 0 -18 -4 -18 -10 0
-5 -8 -10 -18 -10 -10 0 -24 -9 -32 -20 -8 -11 -21 -20 -30 -20 -9 0 -22 -9
-30 -20 -8 -11 -21 -20 -30 -20 -9 0 -22 -9 -30 -20 -8 -11 -21 -20 -28 -20
-8 0 -27 -13 -42 -30 -15 -16 -33 -30 -40 -30 -6 0 -29 -18 -50 -40 -21 -22
-43 -40 -50 -40 -6 0 -46 -36 -90 -80 -44 -44 -84 -80 -90 -80 -14 0 -80 -66
-80 -80 0 -6 -36 -46 -80 -90 -44 -44 -80 -84 -80 -90 0 -7 -18 -29 -40 -50
-22 -21 -40 -45 -40 -52 0 -7 -9 -20 -20 -28 -11 -8 -20 -21 -20 -28 0 -8 -13
-27 -30 -42 -16 -15 -30 -34 -30 -42 0 -7 -9 -20 -20 -28 -11 -8 -20 -22 -20
-32 0 -10 -4 -18 -10 -18 -5 0 -10 -8 -10 -18 0 -10 -9 -24 -20 -32 -11 -8
-20 -22 -20 -32 0 -10 -4 -18 -10 -18 -5 0 -10 -8 -10 -18 0 -10 -9 -24 -20
-32 -11 -8 -20 -22 -20 -32 0 -10 -4 -18 -10 -18 -5 0 -10 -9 -10 -20 0 -11
-4 -20 -10 -20 -5 0 -10 -9 -10 -20 0 -11 -4 -20 -10 -20 -5 0 -10 -9 -10 -20
0 -11 -4 -20 -10 -20 -5 0 -10 -13 -10 -30 0 -16 -4 -30 -10 -30 -5 0 -10 -9
-10 -20 0 -11 -4 -20 -10 -20 -5 0 -10 -9 -10 -20 0 -11 -4 -20 -10 -20 -5 0
-10 -13 -10 -30 0 -16 -4 -30 -10 -30 -5 0 -10 -9 -10 -20 0 -11 -4 -20 -10
-20 -5 0 -10 -13 -10 -30 0 -16 -4 -30 -10 -30 -5 0 -10 -13 -10 -30 0 -16 -4
-30 -10 -30 -5 0 -10 -13 -10 -30 0 -16 -4 -30 -10 -30 -5 0 -10 -13 -10 -30
0 -16 -4 -30 -10 -30 -5 0 -10 -18 -10 -40 0 -22 -4 -40 -10 -40 -5 0 -10 -18
-10 -40 0 -22 -4 -40 -10 -40 -5 0 -10 -22 -10 -50 0 -27 -4 -50 -10 -50 -5 0
-10 -22 -10 -50 0 -27 -4 -50 -10 -50 -6 0 -10 -33 -10 -80 0 -47 -4 -80 -10
-80 -6 0 -10 -120 -10 -340 0 -220 4 -340 10 -340 6 0 10 -33 10 -80 0 -47 4
-80 10 -80 6 0 10 -22 10 -50 0 -27 5 -50 10 -50 6 0 10 -22 10 -50 0 -27 5
-50 10 -50 6 0 10 -18 10 -40 0 -22 5 -40 10 -40 6 0 10 -18 10 -40 0 -22 5
-40 10 -40 6 0 10 -13 10 -30 0 -16 5 -30 10 -30 6 0 10 -13 10 -30 0 -16 5
-30 10 -30 6 0 10 -13 10 -30 0 -16 5 -30 10 -30 6 0 10 -13 10 -30 0 -16 5
-30 10 -30 6 0 10 -13 10 -30 0 -16 5 -30 10 -30 6 0 10 -9 10 -20 0 -11 5
-20 10 -20 6 0 10 -9 10 -20 0 -11 5 -20 10 -20 6 0 10 -13 10 -30 0 -16 5
-30 10 -30 6 0 10 -9 10 -20 0 -11 5 -20 10 -20 6 0 10 -9 10 -20 0 -11 5 -20
10 -20 6 0 10 -9 10 -20 0 -11 5 -20 10 -20 6 0 10 -9 10 -20 0 -11 5 -20 10
-20 6 0 10 -8 10 -18 0 -10 9 -24 20 -32 11 -8 20 -22 20 -32 0 -10 5 -18 10
-18 6 0 10 -9 10 -20 0 -11 5 -20 10 -20 6 0 10 -8 10 -18 0 -10 9 -24 20 -32
11 -8 20 -21 20 -30 0 -9 9 -22 20 -30 11 -8 20 -21 20 -30 0 -9 9 -22 20 -30
11 -8 20 -20 20 -27 0 -7 14 -27 30 -45 16 -17 30 -35 30 -40 0 -6 14 -23 30
-38 17 -15 30 -33 30 -40 0 -6 27 -38 60 -70 33 -32 60 -64 60 -70 0 -14 186
-200 200 -200 6 0 38 -27 70 -60 32 -33 64 -60 70 -60 6 0 29 -18 50 -40 21
-22 45 -40 52 -40 7 0 20 -9 28 -20 8 -11 21 -20 28 -20 8 0 27 -13 42 -30 15
-16 35 -30 44 -30 9 0 16 -4 16 -10 0 -5 8 -10 18 -10 10 0 24 -9 32 -20 8
-11 21 -20 30 -20 9 0 22 -9 30 -20 8 -11 22 -20 32 -20 10 0 18 -4 18 -10 0
-5 9 -10 20 -10 11 0 20 -4 20 -10 0 -5 9 -10 20 -10 11 0 20 -4 20 -10 0 -5
9 -10 20 -10 11 0 20 -4 20 -10 0 -5 9 -10 20 -10 11 0 20 -4 20 -10 0 -5 9
-10 20 -10 11 0 20 -4 20 -10 0 -5 9 -10 20 -10 11 0 20 -4 20 -10 0 -5 9 -10
20 -10 11 0 20 -4 20 -10 0 -5 9 -10 20 -10 11 0 20 -4 20 -10 0 -5 14 -10 30
-10 17 0 30 -4 30 -10 0 -5 9 -10 20 -10 11 0 20 -4 20 -10 0 -5 14 -10 30
-10 17 0 30 -4 30 -10 0 -5 14 -10 30 -10 17 0 30 -4 30 -10 0 -5 14 -10 30
-10 17 0 30 -4 30 -10 0 -5 14 -10 30 -10 17 0 30 -4 30 -10 0 -5 18 -10 40
-10 22 0 40 -4 40 -10 0 -5 18 -10 40 -10 22 0 40 -4 40 -10 0 -5 18 -10 40
-10 22 0 40 -4 40 -10 0 -5 23 -10 50 -10 28 0 50 -4 50 -10 0 -6 26 -10 59
-10 33 0 63 -4 66 -10 3 -6 48 -10 101 -10 52 0 94 -4 94 -9 0 -6 92 -10 220
-11 145 0 220 3 220 10 0 6 38 10 100 10 60 0 100 4 100 10 0 6 30 10 70 10
40 0 70 4 70 10 0 6 23 10 50 10 28 0 50 5 50 10 0 6 18 10 40 10 22 0 40 5
40 10 0 6 18 10 40 10 22 0 40 5 40 10 0 6 18 10 40 10 22 0 40 5 40 10 0 6
14 10 30 10 17 0 30 5 30 10 0 6 14 10 30 10 17 0 30 5 30 10 0 6 14 10 30 10
17 0 30 5 30 10 0 6 14 10 30 10 17 0 30 5 30 10 0 6 9 10 20 10 11 0 20 5 20
10 0 6 14 10 31 10 17 0 28 4 24 10 -4 6 5 10 19 10 14 0 26 5 26 10 0 6 9 10
20 10 11 0 20 5 20 10 0 6 9 10 20 10 11 0 20 5 20 10 0 6 9 10 20 10 11 0 20
5 20 10 0 6 9 10 20 10 11 0 20 5 20 10 0 6 9 10 20 10 11 0 20 5 20 10 0 6 9
10 20 10 11 0 20 5 20 10 0 6 8 10 18 10 10 0 24 9 32 20 8 11 22 20 32 20 10
0 18 5 18 10 0 6 8 10 18 10 10 0 24 9 32 20 8 11 21 20 30 20 9 0 22 9 30 20
8 11 21 20 30 20 9 0 22 9 30 20 8 11 21 20 28 20 8 0 27 14 42 30 15 17 33
30 40 30 6 0 29 18 50 40 21 22 43 40 49 40 14 0 401 387 401 401 0 6 18 28
40 49 22 21 40 44 40 50 0 7 14 25 30 40 17 15 30 34 30 42 0 7 9 20 20 28 11
8 20 21 20 30 0 9 9 22 20 30 11 8 20 21 20 30 0 9 9 22 20 30 11 8 20 21 20
30 0 9 9 22 20 30 11 8 20 22 20 32 0 10 5 18 10 18 6 0 10 9 10 20 0 11 5 20
10 20 6 0 10 9 10 20 0 11 5 20 10 20 6 0 10 9 10 20 0 11 5 20 10 20 6 0 10
9 10 20 0 11 5 20 10 20 6 0 10 9 10 20 0 11 5 20 10 20 6 0 10 9 10 20 0 11
5 20 10 20 6 0 10 9 10 20 0 11 5 20 10 20 6 0 10 9 10 20 0 11 5 20 10 20 6
0 10 14 10 30 0 17 5 30 10 30 6 0 10 9 10 20 0 11 5 20 10 20 6 0 10 14 10
30 0 17 5 30 10 30 6 0 10 14 10 30 0 17 5 30 10 30 6 0 10 14 10 30 0 17 5
30 10 30 6 0 10 14 10 30 0 17 5 30 10 30 6 0 10 14 10 30 0 17 5 30 10 30 6
0 10 18 10 40 0 22 5 40 10 40 6 0 10 18 10 40 0 22 5 40 10 40 6 0 10 23 10
50 0 28 5 50 10 50 6 0 10 27 10 60 0 33 4 60 10 60 6 0 10 33 10 80 0 47 4
80 10 80 6 0 10 105 10 294 0 186 -4 297 -10 301 -5 3 -10 42 -10 86 0 46 -4
79 -10 79 -6 0 -10 27 -10 60 0 33 -4 60 -10 60 -5 0 -10 23 -10 50 0 28 -4
50 -10 50 -5 0 -10 18 -10 40 0 22 -4 40 -10 40 -5 0 -10 18 -10 40 0 22 -4
40 -10 40 -5 0 -10 14 -10 30 0 17 -4 30 -10 30 -5 0 -10 14 -10 30 0 17 -4
30 -10 30 -5 0 -10 14 -10 30 0 17 -4 30 -10 30 -5 0 -10 14 -10 30 0 17 -4
30 -10 30 -5 0 -10 14 -10 30 0 17 -4 30 -10 30 -5 0 -10 9 -10 20 0 11 -4 20
-10 20 -5 0 -10 14 -10 31 0 17 -4 28 -10 24 -6 -4 -10 5 -10 19 0 14 -4 26
-10 26 -5 0 -10 9 -10 20 0 11 -4 20 -10 20 -5 0 -10 9 -10 20 0 11 -4 20 -10
20 -5 0 -10 9 -10 20 0 11 -4 20 -10 20 -5 0 -10 9 -10 20 0 11 -4 20 -10 20
-5 0 -10 9 -10 20 0 11 -4 20 -10 20 -5 0 -10 9 -10 20 0 11 -4 20 -10 20 -5
0 -10 9 -10 21 0 11 -4 17 -10 14 -5 -3 -10 1 -10 9 0 9 -4 16 -10 16 -5 0
-10 9 -10 20 0 11 -4 20 -10 20 -5 0 -10 8 -10 18 0 10 -9 24 -20 32 -11 8
-20 21 -20 30 0 9 -9 22 -20 30 -11 8 -20 21 -20 28 0 8 -14 27 -30 42 -16 15
-30 33 -30 40 0 7 -13 25 -30 40 -16 15 -30 33 -30 40 0 6 -18 29 -40 50 -22
21 -40 43 -40 50 0 14 -347 360 -361 360 -6 0 -28 18 -49 40 -21 22 -44 40
-50 40 -7 0 -25 14 -40 30 -15 17 -33 30 -40 30 -7 0 -25 14 -40 30 -15 17
-34 30 -42 30 -7 0 -20 9 -28 20 -8 11 -22 20 -32 20 -10 0 -18 5 -18 10 0 6
-8 10 -18 10 -10 0 -24 9 -32 20 -8 11 -22 20 -32 20 -10 0 -18 5 -18 10 0 6
-7 10 -15 10 -9 0 -25 9 -37 20 -12 11 -28 20 -35 20 -7 0 -13 5 -13 10 0 6
-9 10 -20 10 -11 0 -20 5 -20 10 0 6 -9 10 -20 10 -11 0 -20 5 -20 10 0 6 -9
10 -20 10 -11 0 -20 5 -20 10 0 6 -9 10 -20 10 -11 0 -20 5 -20 10 0 6 -15 10
-32 10 -25 0 -29 3 -18 10 11 7 7 10 -17 10 -18 0 -33 5 -33 10 0 6 -9 10 -20
10 -11 0 -20 5 -20 10 0 6 -13 10 -30 10 -16 0 -30 5 -30 10 0 6 -9 10 -20 10
-11 0 -20 5 -20 10 0 6 -13 10 -30 10 -16 0 -30 5 -30 10 0 6 -13 10 -30 10
-16 0 -30 5 -30 10 0 6 -18 10 -40 10 -22 0 -40 5 -40 10 0 6 -13 10 -30 10
-16 0 -30 5 -30 10 0 6 -18 10 -40 10 -22 0 -40 5 -40 10 0 6 -22 10 -50 10
-27 0 -50 5 -50 10 0 6 -22 10 -50 10 -27 0 -50 5 -50 10 0 6 -30 10 -70 10
-40 0 -70 4 -70 10 0 6 -43 10 -110 10 -67 0 -110 4 -110 10 0 6 -67 10 -181
10 -117 0 -178 -3 -174 -10z m255 -922 c0 -15 5 -28 10 -28 6 0 10 -9 10 -20
0 -11 5 -20 10 -20 6 0 10 -9 10 -20 0 -11 5 -20 10 -20 6 0 10 -8 10 -18 0
-10 9 -24 20 -32 11 -8 20 -22 20 -32 0 -10 5 -18 10 -18 6 0 10 -18 10 -40 0
-22 5 -40 10 -40 6 0 10 -18 10 -40 0 -22 -4 -40 -10 -40 -5 0 -10 -16 -10
-35 0 -36 -35 -85 -60 -85 -6 0 -8 -4 -5 -10 3 -5 1 -10 -4 -10 -6 0 -11 9
-11 20 0 11 -4 20 -10 20 -5 0 -10 13 -10 29 0 16 -4 31 -9 33 -5 2 -11 19
-12 38 -5 49 -39 84 -39 40 0 -11 -4 -20 -10 -20 -6 0 -10 -27 -10 -60 0 -33
-4 -60 -10 -60 -5 0 -10 -6 -10 -13 0 -9 -10 -12 -30 -9 -20 3 -30 10 -30 21
0 9 -9 23 -20 31 -18 13 -20 26 -20 112 0 59 4 98 10 98 6 0 10 9 10 20 0 11
5 20 10 20 6 0 10 7 10 16 0 8 7 22 15 31 8 8 13 19 10 24 -4 5 -1 9 4 9 6 0
11 9 11 20 0 11 5 20 10 20 6 0 10 6 10 13 0 7 9 23 20 35 11 12 20 28 20 36
0 9 8 14 20 13 15 -1 20 -8 20 -29z m-440 -378 c0 -5 18 -10 40 -10 22 0 40
-4 40 -10 0 -5 12 -10 26 -10 15 0 37 -11 53 -27 14 -16 32 -29 39 -31 17 -3
76 -64 80 -83 2 -7 8 -15 13 -17 5 -2 9 -12 9 -23 0 -10 5 -19 10 -19 6 0 10
-13 10 -30 0 -16 5 -30 10 -30 13 0 13 -77 -1 -85 -6 -4 -8 -13 -5 -21 10 -25
-14 -15 -50 21 -19 20 -39 33 -43 31 -4 -3 -14 4 -21 15 -8 10 -25 19 -38 19
-15 0 -21 4 -16 12 4 7 3 8 -4 4 -7 -4 -12 -18 -12 -32 0 -20 -5 -24 -30 -24
-16 0 -30 5 -30 10 0 6 -9 10 -20 10 -11 0 -20 7 -20 16 0 8 -4 13 -8 10 -4
-2 -9 7 -10 22 -1 15 -7 29 -12 30 -6 2 -10 21 -10 43 0 21 -4 39 -10 39 -5 0
-10 9 -10 20 0 11 -4 20 -10 20 -5 0 -10 7 -10 15 0 20 -65 85 -85 85 -18 0
-19 6 -2 25 14 17 127 21 127 5z m960 -7 c0 -17 -24 -43 -40 -43 -16 0 -40
-26 -40 -42 0 -8 -9 -20 -20 -28 -11 -8 -20 -22 -20 -32 0 -10 -4 -18 -10 -18
-5 0 -10 -18 -10 -40 0 -22 -4 -40 -10 -40 -5 0 -10 -11 -10 -25 0 -26 -49
-87 -51 -63 0 10 -2 10 -6 1 -6 -15 -73 -18 -73 -3 0 19 -65 11 -80 -10 -8
-11 -21 -20 -29 -20 -7 0 -22 -9 -32 -21 -15 -18 -20 -19 -31 -8 -16 18 -23
69 -9 69 6 0 11 18 11 40 0 22 5 40 10 40 6 0 10 9 10 20 0 11 5 20 10 20 6 0
10 6 10 14 0 19 125 146 143 146 9 0 17 4 19 10 2 5 15 11 31 12 15 1 27 6 27
10 0 4 18 8 40 8 22 0 40 5 40 11 0 6 23 9 60 8 44 -2 60 -6 60 -16z m-1340
-63 c0 -11 5 -20 10 -20 6 0 10 -43 10 -110 0 -67 -4 -110 -10 -110 -5 0 -10
-13 -10 -30 0 -16 -4 -30 -10 -30 -5 0 -10 9 -10 20 0 11 -4 20 -10 20 -5 0
-10 9 -10 20 0 11 -4 20 -10 20 -5 0 -10 14 -10 30 0 17 -4 30 -10 30 -5 0
-10 9 -10 20 0 11 -4 20 -10 20 -5 0 -10 14 -10 30 0 17 -4 30 -10 30 -5 0
-10 9 -10 20 0 11 5 20 10 20 6 0 10 9 10 20 0 17 7 20 50 20 43 0 50 -3 50
-20z m1675 -5 c25 -24 33 -55 15 -55 -5 0 -10 -13 -10 -30 0 -16 -4 -30 -10
-30 -5 0 -10 -13 -10 -30 0 -16 -4 -30 -10 -30 -5 0 -10 -9 -10 -20 0 -11 -4
-20 -10 -20 -5 0 -10 -13 -10 -30 0 -16 -4 -30 -10 -30 -5 0 -10 -13 -10 -30
0 -16 -4 -30 -10 -30 -6 0 -10 33 -10 80 0 47 -4 80 -10 80 -14 0 -12 141 3
173 16 36 67 37 102 2z m-295 -115 c0 -11 5 -20 10 -20 6 0 10 -60 10 -160 0
-100 -4 -160 -10 -160 -5 0 -10 -18 -10 -40 0 -22 -4 -40 -10 -40 -5 0 -10
-13 -10 -30 0 -16 -4 -30 -10 -30 -5 0 -10 -13 -10 -30 0 -16 -4 -30 -10 -30
-5 0 -10 -9 -10 -20 0 -11 -4 -20 -10 -20 -5 0 -10 -9 -10 -20 0 -11 -4 -20
-10 -20 -5 0 -10 -7 -10 -15 0 -19 -120 -139 -143 -143 -12 -2 -17 4 -17 23 0
15 4 24 10 20 6 -3 10 -1 10 4 0 6 -13 11 -30 11 -21 0 -30 5 -30 16 0 8 -4
13 -8 10 -5 -3 -14 4 -22 14 -8 10 -17 17 -22 14 -4 -3 -8 15 -8 40 0 25 5 46
10 46 6 0 10 8 10 18 0 10 9 24 20 32 11 8 20 20 20 28 0 7 23 35 50 62 28 27
50 51 50 54 0 3 -13 6 -30 6 -16 0 -30 -4 -30 -10 0 -5 -9 -10 -21 -10 -11 0
-17 -4 -14 -10 3 -5 -1 -10 -9 -10 -9 0 -16 -4 -16 -10 0 -5 -7 -10 -15 -10
-19 0 -105 -84 -105 -103 0 -7 -9 -19 -20 -27 -11 -8 -20 -22 -20 -32 0 -10
-4 -18 -10 -18 -5 0 -10 -13 -10 -30 0 -16 -4 -30 -10 -30 -5 0 -10 -18 -10
-40 0 -22 -4 -40 -10 -40 -6 0 -10 -53 -10 -140 0 -139 0 -140 -22 -140 -35 1
-58 24 -58 58 0 17 -4 34 -10 37 -6 4 -10 53 -10 116 0 66 -4 109 -10 109 -5
0 -10 15 -10 33 0 19 -8 42 -20 55 -11 12 -20 28 -20 37 0 8 -4 15 -10 15 -5
0 -10 7 -10 15 0 19 -104 125 -123 125 -7 0 -19 9 -27 20 -8 11 -22 20 -32 20
-10 0 -18 5 -18 10 0 6 -13 10 -30 10 -16 0 -30 -2 -30 -6 0 -3 27 -32 60 -64
33 -32 60 -66 60 -74 0 -9 5 -16 10 -16 6 0 10 -9 10 -20 0 -11 5 -20 10 -20
6 0 10 -18 10 -40 0 -29 -4 -40 -15 -40 -9 0 -20 -10 -25 -22 -5 -13 -9 -17
-9 -10 -1 18 -51 -33 -51 -53 0 -31 -49 -16 -95 30 -25 24 -45 49 -45 55 0 6
-4 8 -10 5 -5 -3 -10 3 -10 14 0 12 -4 21 -10 21 -5 0 -10 9 -10 20 0 11 -4
20 -10 20 -5 0 -10 14 -10 30 0 17 -4 30 -10 30 -5 0 -10 9 -10 20 0 11 -4 20
-10 20 -5 0 -10 18 -10 40 0 22 -4 40 -10 40 -6 0 -10 32 -10 75 0 43 -4 75
-10 75 -6 0 -10 32 -10 75 0 43 4 75 10 75 6 0 10 18 10 40 0 22 3 40 6 40 10
0 34 -28 34 -40 0 -16 87 -100 105 -100 8 0 15 -4 15 -10 0 -5 9 -10 20 -10
11 0 20 -4 20 -10 0 -5 9 -10 20 -10 11 0 20 -4 20 -10 0 -5 14 -10 30 -10 17
0 30 -4 30 -10 0 -5 8 -10 18 -10 10 0 24 -9 32 -20 8 -11 20 -20 27 -20 19 0
123 -106 123 -125 0 -8 5 -15 10 -15 6 0 10 -9 10 -20 0 -11 5 -20 10 -20 6 0
10 -9 10 -20 0 -11 5 -20 10 -20 6 0 10 -12 10 -26 0 -14 7 -32 15 -40 13 -14
17 -14 30 0 8 8 15 26 15 40 0 14 5 26 10 26 6 0 10 8 10 18 0 10 9 24 20 32
11 8 20 21 20 30 0 9 9 22 20 30 11 8 20 20 20 28 0 17 45 62 62 62 8 0 20 9
28 20 8 11 22 20 32 20 10 0 18 5 18 10 0 6 9 10 20 10 11 0 20 5 20 10 0 6 9
10 20 10 11 0 20 5 20 10 0 6 9 10 20 10 11 0 20 5 20 10 0 6 13 10 28 10 16
0 34 8 42 20 8 11 20 20 28 20 18 0 42 25 42 44 0 9 5 16 10 16 6 0 10 9 10
20 0 11 5 20 10 20 6 0 10 14 10 30 0 17 5 30 10 30 6 0 10 -9 10 -20z m-1627
-62 c12 -13 28 -35 36 -50 8 -16 18 -28 23 -28 4 0 8 -13 8 -30 0 -16 5 -30
10 -30 6 0 10 -9 10 -20 0 -11 5 -20 10 -20 6 0 10 -9 10 -20 0 -11 -4 -20 -8
-20 -4 0 -14 9 -22 20 -8 11 -21 20 -30 20 -9 0 -22 9 -30 20 -8 11 -21 20
-30 20 -9 0 -22 9 -30 20 -8 11 -20 20 -28 20 -37 0 -57 73 -29 105 19 22 75
18 100 -7z m2173 8 c22 -23 17 -74 -11 -101 -13 -14 -30 -25 -37 -25 -8 0 -20
-9 -28 -20 -8 -11 -21 -20 -30 -20 -9 0 -22 -9 -30 -20 -8 -11 -22 -20 -32
-20 -10 0 -18 -4 -18 -10 0 -5 -4 -10 -10 -10 -5 0 -10 9 -10 20 0 11 5 20 10
20 6 0 10 9 10 20 0 11 5 20 10 20 6 0 10 9 10 20 0 11 5 20 10 20 6 0 10 9
10 20 0 11 5 20 10 20 6 0 10 7 10 15 0 9 10 27 23 40 25 27 80 33 103 11z
m-2766 -16 c0 -5 7 -10 15 -10 17 0 325 -304 325 -321 0 -23 -30 -39 -74 -39
-25 0 -46 -4 -46 -10 0 -22 -53 -9 -80 20 -15 17 -36 30 -47 30 -15 0 -16 2
-3 10 12 8 11 10 -7 10 -13 0 -23 5 -23 10 0 6 -22 10 -50 10 -27 0 -50 5 -50
10 0 6 -7 10 -15 10 -9 0 -36 20 -60 45 -42 42 -45 48 -45 100 0 30 5 55 10
55 6 0 10 8 10 19 0 11 12 23 30 31 17 7 30 16 30 21 0 5 18 9 40 9 22 0 40
-4 40 -10z m2995 -135 c14 -13 25 -29 25 -35 0 -6 -22 -33 -50 -60 -27 -27
-50 -54 -50 -60 0 -14 66 -80 80 -80 6 0 14 -8 17 -17 10 -26 70 -83 88 -83 8
0 15 -4 15 -10 0 -6 30 -10 70 -10 40 0 70 4 70 10 0 6 11 10 25 10 26 0 115
-78 115 -100 0 -15 -287 -300 -303 -300 -7 0 -19 -9 -27 -20 -8 -11 -18 -20
-22 -20 -4 0 -8 9 -8 20 0 11 5 20 10 20 6 0 10 17 8 40 -1 22 -6 40 -10 40
-4 0 -8 34 -8 75 l0 75 -150 150 c-82 82 -150 154 -150 160 0 6 26 37 58 68
32 31 61 65 65 75 3 9 12 17 19 17 7 0 24 14 38 30 31 36 44 37 75 5z m-2440
-160 c14 -13 25 -29 25 -35 0 -6 -81 -91 -180 -190 l-180 -180 0 -55 c0 -43
-3 -55 -15 -55 -17 0 -105 84 -105 100 0 6 77 87 170 180 94 93 170 176 170
185 0 8 7 15 15 15 22 0 68 47 52 53 -7 3 -4 6 6 6 10 1 29 -10 42 -24z m325
-105 c0 -5 7 -10 15 -10 29 0 65 -47 65 -85 0 -19 -4 -35 -10 -35 -5 0 -10 -7
-10 -16 0 -27 -27 -44 -69 -44 -51 0 -91 18 -91 42 0 10 -4 18 -10 18 -5 0
-10 16 -10 35 0 38 36 85 65 85 8 0 15 5 15 10 0 6 9 10 20 10 11 0 20 -4 20
-10z m1588 -27 c24 -24 32 -41 32 -68 0 -19 -4 -35 -10 -35 -5 0 -10 -9 -10
-20 0 -13 -7 -20 -20 -20 -11 0 -20 -4 -20 -10 0 -5 -21 -10 -46 -10 -38 0
-51 5 -70 28 -15 17 -24 40 -24 62 0 39 36 90 64 90 9 0 16 5 16 11 0 21 56 3
88 -28z m327 -108 c14 -13 25 -29 25 -35 0 -14 -207 -220 -221 -220 -6 0 -28
-18 -49 -40 -21 -22 -44 -40 -50 -40 -6 0 -8 -4 -5 -10 3 -5 2 -10 -4 -10 -5
0 -11 6 -13 12 -7 21 -38 -17 -38 -46 0 -14 -4 -26 -10 -26 -5 0 -10 -18 -10
-40 0 -22 -4 -40 -10 -40 -5 0 -10 -23 -10 -51 0 -31 -4 -48 -10 -44 -6 4 -10
-5 -10 -19 0 -14 -4 -26 -10 -26 -5 0 -10 -9 -10 -20 0 -11 -4 -20 -10 -20 -5
0 -10 -12 -10 -26 0 -16 -12 -37 -30 -54 -16 -15 -30 -33 -30 -39 0 -15 -46
-61 -61 -61 -6 0 -24 -13 -39 -30 -17 -18 -38 -30 -54 -30 -14 0 -26 -4 -26
-10 0 -5 -9 -10 -20 -10 -11 0 -20 -4 -20 -10 0 -5 -22 -10 -50 -10 -27 0 -50
5 -50 10 0 6 8 10 18 10 12 0 18 9 20 28 1 15 7 29 12 30 27 9 -20 82 -53 82
-20 0 -16 51 5 71 10 9 18 22 18 28 0 17 87 101 105 101 9 0 13 5 10 10 -3 6
1 10 9 10 9 0 16 5 16 10 0 6 -9 10 -20 10 -11 0 -20 -4 -20 -10 0 -5 -13 -10
-30 -10 -16 0 -30 -4 -30 -10 0 -5 -8 -10 -18 -10 -10 0 -24 -9 -32 -20 -8
-11 -20 -20 -27 -20 -8 0 -38 -25 -68 -55 -30 -30 -55 -60 -55 -68 0 -7 -9
-19 -20 -27 -11 -8 -20 -22 -20 -32 0 -10 -4 -18 -10 -18 -5 0 -10 -9 -10 -20
0 -11 -4 -20 -10 -20 -5 0 -10 -9 -10 -20 0 -11 -4 -20 -10 -20 -5 0 -10 -18
-10 -40 0 -22 -4 -40 -10 -40 -5 0 -10 -22 -10 -50 0 -27 -4 -50 -10 -50 -6 0
-10 -56 -10 -148 l0 -149 -32 -1 c-37 -1 -48 11 -48 50 0 15 -4 30 -10 33 -6
4 -10 62 -10 141 0 83 -4 134 -10 134 -5 0 -10 18 -10 40 0 22 -4 40 -10 40
-5 0 -10 9 -10 20 0 11 -4 20 -8 20 -4 0 -14 21 -22 48 -7 26 -22 54 -32 63
-10 9 -18 22 -18 28 0 17 -147 161 -165 161 -8 0 -15 5 -15 10 0 6 -9 10 -20
10 -11 0 -20 5 -20 10 0 6 -9 10 -20 10 -11 0 -20 5 -20 10 0 6 -9 10 -20 10
-11 0 -20 -2 -20 -5 0 -3 32 -37 70 -75 39 -38 70 -76 70 -84 0 -8 6 -17 13
-20 9 -5 9 -7 -1 -12 -6 -3 -10 -10 -6 -15 3 -5 0 -9 -6 -9 -22 0 -60 -49 -60
-78 0 -30 20 -82 33 -82 4 0 7 -4 7 -10 0 -5 -18 -10 -40 -10 -22 0 -40 5 -40
10 0 6 -9 10 -20 10 -11 0 -20 5 -20 10 0 6 -9 10 -20 10 -11 0 -20 5 -20 10
0 6 -7 10 -15 10 -8 0 -49 34 -90 75 -41 41 -75 82 -75 90 0 8 -4 15 -10 15
-5 0 -10 9 -10 20 0 11 -4 20 -10 20 -5 0 -10 9 -10 20 0 11 -4 20 -10 20 -5
0 -10 18 -10 40 0 22 -4 40 -10 40 -5 0 -10 18 -10 40 0 22 -4 40 -10 40 -5 0
-10 18 -10 40 0 22 -4 40 -10 40 -5 0 -10 12 -10 28 0 16 -8 32 -20 40 -11 7
-20 8 -20 3 0 -5 -9 -9 -19 -8 -11 0 -17 5 -15 9 3 4 -1 8 -8 8 -8 0 -20 9
-28 20 -8 11 -20 20 -27 20 -7 0 -51 38 -98 85 -62 61 -85 92 -85 110 0 14 5
25 10 25 6 0 10 9 10 20 0 11 7 20 15 20 9 0 78 -63 155 -140 77 -77 146 -140
155 -140 8 0 15 -4 15 -10 0 -5 14 -10 30 -10 17 0 30 -4 30 -10 0 -5 9 -10
19 -10 11 0 23 -4 26 -10 3 -5 35 -10 71 -10 36 0 64 -4 64 -10 0 -5 23 -10
50 -10 28 0 50 -4 50 -10 0 -5 14 -10 30 -10 17 0 30 -4 30 -10 0 -5 9 -10 20
-10 11 0 20 -4 20 -10 0 -5 7 -10 15 -10 20 0 165 -145 165 -165 0 -8 5 -15
10 -15 6 0 10 -9 10 -20 0 -11 5 -20 10 -20 6 0 10 -7 10 -16 0 -8 7 -22 15
-31 8 -8 13 -19 10 -24 -4 -5 -1 -9 4 -9 6 0 11 -13 11 -30 0 -16 5 -30 10
-30 6 0 10 -13 10 -30 0 -16 5 -30 10 -30 6 0 10 -18 10 -40 0 -22 5 -40 10
-40 6 0 10 -9 10 -20 0 -11 5 -20 10 -20 6 0 10 9 10 20 0 11 5 20 10 20 6 0
10 18 10 40 0 22 5 40 10 40 6 0 10 14 10 30 0 17 5 30 10 30 6 0 10 9 10 20
0 11 5 20 10 20 6 0 10 15 10 33 0 24 3 28 10 17 7 -12 10 -8 10 15 0 19 8 36
20 45 11 8 20 22 20 32 0 10 5 18 10 18 6 0 10 7 10 15 0 19 84 105 103 105 7
0 19 9 27 20 8 11 22 20 32 20 10 0 18 5 18 10 0 6 9 10 20 10 11 0 20 5 20
10 0 6 9 10 19 10 11 0 23 5 26 10 3 6 31 10 61 10 34 0 53 4 49 10 -4 6 18
10 59 10 37 0 66 4 66 10 0 6 14 10 30 10 17 0 30 5 30 10 0 6 9 10 20 10 11
0 20 5 20 10 0 6 13 10 28 10 25 0 53 24 56 46 1 15 260 272 274 273 7 1 24
-10 37 -24z m-2889 -9 c8 -8 14 -31 14 -50 0 -35 -1 -36 -36 -36 -44 0 -68 22
-60 55 4 14 13 25 21 25 8 0 15 5 15 10 0 15 29 12 46 -4z m3589 -171 c36 -35
65 -67 65 -70 0 -19 -39 3 -85 50 -47 46 -69 85 -50 85 3 0 35 -29 70 -65z
m-3420 -100 c47 -47 85 -90 85 -96 0 -19 -40 -48 -58 -42 -9 4 -53 44 -99 90
l-83 83 22 24 c13 14 29 25 36 25 7 1 50 -37 97 -84z m3265 75 c0 -5 7 -10 16
-10 18 0 44 -24 44 -40 0 -7 14 -25 30 -40 26 -24 41 -60 25 -60 -3 0 -35 29
-70 65 -60 59 -80 95 -55 95 6 0 10 -4 10 -10z m-25 -135 c25 -24 45 -51 45
-60 0 -8 5 -15 10 -15 6 0 10 -5 10 -10 0 -23 -37 -3 -87 47 -53 52 -67 83
-38 83 9 0 36 -20 60 -45z m-2790 -70 c19 -19 35 -41 35 -50 0 -8 5 -15 10
-15 6 0 10 -43 10 -110 0 -67 -4 -110 -10 -110 -5 0 -10 -12 -10 -26 0 -17
-14 -39 -40 -64 -22 -21 -40 -45 -40 -53 0 -14 -40 -37 -65 -37 -8 0 -15 5
-15 10 0 6 5 10 10 10 6 0 10 9 10 20 0 11 5 20 10 20 6 0 10 14 10 30 0 17 5
30 10 30 6 0 10 9 10 20 0 11 5 20 10 20 6 0 10 42 10 106 0 109 -8 134 -44
134 -12 0 -16 10 -16 35 0 72 50 86 105 30z m2322 13 c16 -45 8 -67 -29 -81
-10 -3 -18 -13 -18 -22 0 -8 -4 -15 -10 -15 -6 0 -10 -40 -10 -100 0 -55 4
-100 9 -100 5 0 11 -13 14 -29 3 -16 13 -36 22 -44 8 -9 15 -27 15 -41 0 -14
5 -26 10 -26 6 0 10 -4 10 -10 0 -5 -7 -10 -15 -10 -20 0 -125 105 -125 125 0
8 -4 15 -10 15 -5 0 -10 14 -10 30 0 17 -4 30 -10 30 -6 0 -10 40 -10 100 0
60 4 100 10 100 6 0 10 7 10 15 0 9 15 31 33 50 25 26 40 34 69 34 29 1 38 -3
45 -21z m398 -53 c30 -30 55 -57 55 -60 0 -3 -11 -5 -25 -5 -29 0 -115 79
-115 105 0 29 31 15 85 -40z m-2965 -75 c0 -5 9 -10 20 -10 16 0 20 -7 20 -32
0 -17 6 -47 13 -66 10 -28 10 -36 0 -39 -7 -3 -13 -13 -13 -24 0 -14 -7 -19
-26 -19 -29 0 -54 21 -54 44 0 9 -4 16 -10 16 -5 0 -10 9 -10 20 0 11 -4 20
-10 20 -19 0 -10 51 13 75 22 24 57 33 57 15z m2755 -15 c25 -24 35 -75 15
-75 -5 0 -10 -9 -10 -20 0 -11 -4 -20 -10 -20 -5 0 -10 -7 -10 -15 0 -9 -10
-26 -23 -39 -19 -19 -26 -21 -40 -11 -13 9 -17 28 -17 84 0 61 3 75 23 96 28
31 42 31 72 0z m-3155 -25 c0 -5 9 -10 20 -10 15 0 20 -7 20 -25 0 -29 -51
-88 -58 -67 -2 7 -12 12 -23 12 -16 0 -19 7 -19 40 0 33 3 40 20 40 11 0 20 5
20 10 0 6 5 10 10 10 6 0 10 -4 10 -10z m3558 -17 c17 -17 22 -28 14 -31 -7
-2 -12 -12 -12 -23 0 -15 -7 -19 -36 -19 -35 0 -64 18 -64 40 0 15 42 59 58
59 7 1 25 -11 40 -26z m-3398 -163 c0 -5 23 -10 50 -10 28 0 50 -4 50 -10 0
-5 8 -10 18 -10 10 0 24 -9 32 -20 8 -11 20 -20 28 -20 17 0 62 -45 62 -62 0
-8 9 -20 20 -28 27 -19 28 -70 1 -70 -12 0 -24 12 -32 29 -7 16 -16 28 -20 25
-4 -2 -19 7 -33 21 -14 14 -32 25 -41 25 -8 0 -15 5 -15 10 0 6 -18 10 -40 10
-22 0 -40 5 -40 10 0 6 -22 10 -50 10 -27 0 -50 -4 -50 -10 0 -5 -13 -10 -28
-10 -16 0 -34 -8 -42 -20 -8 -11 -20 -20 -28 -20 -19 0 -69 53 -54 58 7 2 12
10 12 19 0 19 24 43 44 43 9 0 16 5 16 10 0 6 23 10 50 10 28 0 50 5 50 10 0
6 9 10 20 10 11 0 20 -4 20 -10z m3320 -21 c0 -5 7 -9 15 -9 23 0 65 -46 65
-70 0 -24 -22 -50 -42 -50 -8 0 -20 9 -28 20 -8 12 -26 20 -42 20 -15 0 -28 5
-28 10 0 6 -24 10 -54 10 -30 0 -58 -4 -61 -10 -3 -5 -19 -10 -36 -10 -16 0
-29 -4 -29 -10 0 -5 -9 -10 -20 -10 -11 0 -20 -4 -20 -10 0 -5 -7 -10 -16 -10
-8 0 -33 -18 -54 -40 -25 -26 -44 -38 -54 -34 -17 7 -22 34 -6 34 6 0 10 7 10
15 0 20 125 145 145 145 8 0 15 4 15 10 0 10 106 17 188 12 28 -2 52 -8 52
-13z m-2540 -179 c0 -5 14 -10 30 -10 17 0 30 -4 30 -10 0 -5 14 -10 30 -10
17 0 30 -4 30 -10 0 -5 13 -10 28 -10 16 0 34 -8 42 -20 8 -11 22 -20 32 -20
10 0 18 -4 18 -10 0 -5 7 -10 16 -10 9 0 29 -13 44 -30 15 -16 33 -30 39 -30
16 0 121 -107 121 -123 0 -7 9 -19 20 -27 11 -8 20 -20 20 -27 0 -7 5 -13 10
-13 6 0 10 -7 10 -15 0 -8 4 -15 8 -15 9 0 52 -89 52 -107 0 -6 6 -13 13 -16
6 -2 9 -7 5 -11 -3 -4 -25 11 -48 33 -23 23 -47 41 -52 41 -6 0 -23 14 -38 30
-15 17 -35 30 -44 30 -9 0 -16 5 -16 10 0 6 -9 10 -21 10 -11 0 -17 5 -14 10
3 6 -1 10 -9 10 -9 0 -16 5 -16 10 0 6 -9 10 -20 10 -11 0 -20 4 -20 9 0 5
-17 12 -37 15 -92 16 -103 19 -103 27 0 5 -63 9 -140 9 -87 0 -140 -4 -140
-10 0 -5 -16 -10 -36 -10 -27 0 -43 7 -64 30 -26 27 -34 30 -94 30 -37 0 -66
-4 -66 -10 0 -5 -7 -10 -15 -10 -9 0 -31 -16 -50 -35 -19 -19 -35 -41 -35 -50
0 -8 -4 -15 -10 -15 -5 0 -10 -9 -10 -20 0 -11 -4 -20 -10 -20 -5 0 -10 -7
-10 -16 0 -18 -23 -44 -40 -44 -6 0 -8 -4 -5 -10 3 -5 3 -10 0 -10 -11 0 -35
28 -35 41 0 15 -50 59 -67 59 -7 0 -13 5 -13 10 0 6 -22 10 -50 10 -27 0 -50
-4 -50 -10 0 -5 -7 -10 -16 -10 -20 0 -44 -24 -44 -45 0 -9 -4 -13 -10 -10 -6
4 -10 -22 -10 -69 0 -75 0 -76 -26 -76 -29 0 -54 21 -54 44 0 9 -4 16 -10 16
-5 0 -10 23 -10 50 0 28 5 50 10 50 6 0 10 9 10 20 0 11 5 20 10 20 6 0 10 7
10 16 0 19 24 44 42 44 8 0 20 9 28 20 12 17 26 20 97 20 84 0 113 -9 145 -44
16 -16 19 -17 33 -3 8 9 15 27 15 41 0 14 5 26 10 26 6 0 10 8 10 18 0 10 9
24 20 32 11 8 20 20 20 27 0 8 20 34 45 58 24 25 50 45 58 45 7 0 19 9 27 20
8 12 26 20 42 20 15 0 28 5 28 10 0 6 14 10 30 10 17 0 30 5 30 10 0 6 47 10
120 10 73 0 120 -4 120 -10z m1880 0 c0 -5 9 -10 20 -10 11 0 20 -4 20 -10 0
-5 14 -10 30 -10 17 0 30 -4 30 -10 0 -5 7 -10 15 -10 19 0 145 -124 145 -143
0 -7 9 -19 20 -27 11 -8 20 -24 20 -35 0 -11 7 -28 14 -37 14 -19 46 -24 46
-8 0 6 9 10 20 10 11 0 20 5 20 10 0 6 36 10 88 10 76 0 89 -3 102 -20 8 -11
20 -20 28 -20 18 0 42 -25 42 -44 0 -9 5 -16 10 -16 6 0 10 -13 10 -30 0 -16
5 -30 10 -30 6 0 10 -15 10 -34 0 -19 -4 -38 -10 -41 -5 -3 -10 -17 -10 -31 0
-25 -40 -74 -60 -74 -17 0 -40 26 -40 44 0 9 5 16 10 16 6 0 10 27 10 60 0 33
-4 60 -10 60 -5 0 -10 7 -10 16 0 20 -24 44 -44 44 -9 0 -16 5 -16 10 0 6 -18
10 -40 10 -22 0 -40 -4 -40 -10 0 -5 -10 -10 -23 -10 -29 0 -93 -60 -80 -74 4
-3 -1 -6 -9 -6 -21 0 -77 30 -58 31 10 0 11 2 3 6 -7 2 -13 13 -13 24 0 10 -4
19 -10 19 -5 0 -10 7 -10 15 0 9 -25 40 -55 70 l-55 55 -71 0 c-66 0 -73 -2
-99 -30 -21 -23 -37 -30 -64 -30 -20 0 -36 5 -36 10 0 6 -50 10 -130 10 -75 0
-130 -4 -130 -9 0 -6 -8 -8 -19 -6 -10 2 -31 -3 -46 -11 -15 -8 -38 -14 -51
-14 -13 0 -24 -3 -24 -7 0 -9 -48 -33 -65 -33 -6 0 -17 -9 -25 -20 -8 -11 -25
-20 -38 -20 -13 0 -20 -4 -17 -10 3 -5 -2 -10 -12 -10 -10 0 -25 -9 -33 -20
-8 -11 -19 -20 -25 -20 -5 0 -25 -14 -43 -31 -18 -17 -36 -28 -40 -24 -4 4 -1
10 6 12 6 3 12 14 12 24 0 11 5 17 10 14 6 -4 10 5 10 19 0 14 5 26 10 26 6 0
10 7 10 15 0 9 9 25 20 37 11 12 20 28 20 35 0 7 5 13 10 13 6 0 10 7 10 15 0
18 64 85 80 85 6 0 8 5 5 10 -3 6 1 10 10 10 10 0 30 14 45 30 15 17 34 30 42
30 7 0 20 9 28 20 8 11 22 20 32 20 10 0 18 5 18 10 0 6 9 10 20 10 11 0 20 5
20 10 0 6 9 10 20 10 11 0 20 5 20 10 0 6 14 10 30 10 17 0 30 5 30 10 0 6 18
10 40 10 22 0 40 5 40 10 0 6 47 10 120 10 73 0 120 -4 120 -10z m-2580 -40
c0 -5 11 -10 25 -10 16 0 39 -13 61 -35 31 -31 33 -37 20 -50 -16 -17 -66 -20
-66 -5 0 6 -13 10 -30 10 -16 0 -30 5 -30 10 0 6 -22 10 -50 10 -27 0 -50 -4
-50 -10 0 -5 -7 -10 -16 -10 -20 0 -43 -28 -44 -53 -1 -58 -100 -61 -100 -4 0
9 -6 18 -12 21 -10 5 -10 7 0 12 6 3 12 12 12 20 0 19 65 84 85 84 8 0 15 5
15 10 0 6 37 10 90 10 53 0 90 -4 90 -10z m3200 0 c0 -5 7 -10 15 -10 9 0 32
-16 52 -36 29 -29 36 -44 36 -74 0 -43 -21 -70 -53 -70 -31 0 -50 24 -50 64 0
31 -3 36 -24 36 -14 0 -28 5 -31 10 -8 13 -105 10 -105 -2 0 -4 -13 -8 -30 -8
-16 0 -30 -4 -30 -9 0 -13 -27 -21 -45 -15 -33 13 -9 84 29 84 9 0 16 5 16 10
0 6 9 10 20 10 11 0 20 5 20 10 0 6 37 10 90 10 53 0 90 -4 90 -10z m-2420
-340 c0 -5 18 -10 40 -10 22 0 40 -4 40 -10 0 -5 14 -10 30 -10 17 0 30 -4 30
-10 0 -5 13 -10 28 -10 16 0 34 -8 42 -20 8 -11 22 -20 32 -20 10 0 18 -4 18
-10 0 -5 8 -10 18 -10 10 0 24 -9 32 -20 8 -11 20 -20 27 -20 7 0 47 -34 89
-76 67 -67 75 -78 69 -102 -4 -15 -10 -21 -12 -14 -3 6 -13 12 -24 12 -10 0
-19 5 -19 12 0 6 -7 3 -15 -8 -14 -17 -14 -17 -9 -1 5 13 2 18 -7 17 -27 -4
-40 0 -34 10 9 14 -39 12 -53 -2 -9 -9 -15 -9 -24 0 -9 9 -7 12 9 12 12 0 25
5 28 10 3 6 -4 10 -17 10 -16 0 -19 3 -10 9 10 6 9 10 -7 14 -18 4 -21 0 -22
-26 0 -18 -3 -27 -5 -21 -3 6 -16 9 -30 6 -17 -3 -30 2 -40 14 -9 11 -13 13
-9 7 3 -7 1 -13 -4 -13 -6 0 -11 4 -11 10 0 5 -7 7 -16 3 -9 -3 -19 -1 -23 5
-4 7 -64 12 -174 12 -98 1 -165 6 -161 11 3 5 -11 9 -30 9 -20 0 -36 5 -36 10
0 6 -13 10 -30 10 -16 0 -30 5 -30 10 0 6 -7 10 -15 10 -9 0 -36 20 -60 45
-25 24 -45 51 -45 60 0 8 -4 15 -10 15 -5 0 -10 9 -10 20 0 13 7 20 20 20 11
0 20 -4 20 -10 0 -6 27 -10 60 -10 33 0 60 4 60 10 0 6 18 10 40 10 22 0 40 5
40 10 0 6 18 10 40 10 22 0 40 5 40 10 0 6 30 10 70 10 40 0 70 -4 70 -10z
m1600 0 c0 -5 18 -10 40 -10 22 0 40 -4 40 -10 0 -5 18 -10 40 -10 22 0 40 -4
40 -10 0 -6 27 -10 60 -10 33 0 60 4 60 10 0 6 9 10 20 10 13 0 20 -7 20 -20
0 -11 -4 -20 -10 -20 -5 0 -10 -7 -10 -15 0 -20 -85 -105 -105 -105 -8 0 -15
-4 -15 -10 0 -5 -13 -10 -30 -10 -16 0 -30 -4 -30 -10 0 -5 -18 -10 -40 -10
-22 0 -40 -4 -40 -10 0 -6 -57 -10 -150 -10 -82 0 -150 -3 -150 -8 0 -9 -72
-32 -102 -32 -19 0 -20 2 -8 10 13 8 12 10 -2 10 -10 0 -18 5 -18 11 0 5 5 7
12 3 7 -5 8 -3 3 6 -4 7 -2 16 6 21 7 4 10 12 5 16 -5 4 -11 2 -13 -4 -3 -7
-11 -13 -20 -13 -8 0 -21 -7 -30 -15 -8 -8 -18 -13 -22 -11 -4 3 -8 -1 -8 -8
0 -8 8 -11 19 -8 10 2 18 -1 18 -7 0 -6 -3 -10 -7 -10 -5 1 -24 1 -43 -1 -29
-1 -32 -3 -15 -10 17 -7 16 -9 -11 -9 -16 -1 -41 -11 -53 -22 -13 -12 -26 -18
-30 -12 -3 5 -17 9 -30 9 -14 0 -27 6 -29 13 -3 10 0 12 11 8 11 -4 14 -2 10
9 -3 7 0 14 6 14 6 0 11 7 11 15 0 18 84 105 101 105 6 0 24 14 39 30 15 17
35 30 44 30 9 0 16 5 16 10 0 6 9 10 20 10 11 0 20 5 20 10 0 6 9 10 20 10 11
0 20 5 20 10 0 6 9 10 20 10 11 0 20 5 20 10 0 6 16 10 35 10 19 0 35 5 35 10
0 6 20 10 45 10 25 0 45 5 45 10 0 6 27 10 60 10 33 0 60 -4 60 -10z m-2300
-200 c0 -5 13 -10 28 -10 16 0 34 -8 42 -20 8 -11 20 -20 27 -20 19 0 103 -86
103 -105 0 -8 5 -15 10 -15 6 0 10 -27 10 -60 0 -33 4 -60 10 -60 6 0 10 -18
10 -40 0 -22 -4 -40 -10 -40 -5 0 -10 5 -10 10 0 6 -9 10 -21 10 -11 0 -18 4
-14 9 3 5 -2 16 -10 24 -8 9 -15 23 -15 31 0 9 -4 16 -10 16 -5 0 -10 7 -10
15 0 14 -62 85 -75 85 -3 0 -5 -13 -5 -30 0 -16 5 -30 10 -30 6 0 10 -13 10
-30 0 -16 5 -30 10 -30 6 0 10 -9 10 -20 0 -11 5 -20 10 -20 6 0 10 -4 10 -10
0 -5 -12 -10 -26 -10 -14 0 -23 4 -19 10 3 6 -1 10 -10 10 -20 0 -85 64 -85
85 0 8 -4 15 -10 15 -5 0 -10 14 -10 30 0 17 -4 30 -10 30 -15 0 -13 148 3
165 14 16 47 20 47 5z m2900 -10 c0 -11 5 -20 10 -20 6 0 10 -30 10 -70 0 -40
-4 -70 -10 -70 -5 0 -10 -11 -10 -25 0 -34 -16 -61 -67 -112 -40 -41 -75 -54
-88 -33 -3 6 -1 10 4 10 6 0 11 9 11 20 0 11 5 20 10 20 6 0 10 9 10 20 0 11
5 20 10 20 6 0 10 23 10 50 0 28 -4 50 -10 50 -5 0 -10 -7 -10 -15 0 -8 -4
-15 -10 -15 -5 0 -10 -7 -10 -15 0 -8 -4 -15 -10 -15 -5 0 -10 -7 -10 -15 0
-8 -4 -15 -10 -15 -5 0 -10 -7 -10 -15 0 -8 -5 -15 -11 -15 -5 0 -8 -4 -4 -9
3 -5 -2 -16 -10 -24 -8 -9 -15 -20 -15 -26 0 -6 -4 -11 -10 -11 -5 0 -10 -5
-10 -11 0 -11 -24 -39 -34 -39 -3 0 -6 23 -6 50 0 28 5 50 10 50 6 0 10 23 10
50 0 28 5 50 10 50 6 0 10 9 10 20 0 11 5 20 10 20 6 0 10 7 10 16 0 19 68 84
87 84 7 0 13 5 13 10 0 6 9 10 20 10 11 0 20 5 20 10 0 6 9 10 20 10 11 0 20
5 20 10 0 6 9 10 20 10 13 0 20 -7 20 -20z m-3220 -130 c0 -5 9 -10 20 -10 11
0 20 -4 20 -10 0 -5 9 -10 20 -10 11 0 20 -4 20 -10 0 -5 6 -10 13 -10 17 0
87 -64 87 -80 0 -16 26 -40 44 -40 9 0 16 -8 16 -20 0 -13 7 -20 18 -20 10 0
24 -9 32 -20 8 -11 22 -20 32 -20 10 0 18 -4 18 -10 0 -5 9 -10 21 -10 11 0
17 -4 14 -10 -4 -6 5 -10 19 -10 14 0 26 -4 26 -10 0 -5 9 -10 20 -10 11 0 20
-4 20 -10 0 -5 9 -10 20 -10 11 0 20 -4 20 -10 0 -5 14 -10 30 -10 17 0 30 -4
30 -10 0 -5 -22 -10 -50 -10 -27 0 -50 5 -50 10 0 6 -13 10 -30 10 -16 0 -30
5 -30 10 0 6 -9 10 -20 10 -11 0 -20 5 -20 10 0 6 -13 10 -30 10 -16 0 -30 5
-30 10 0 6 -9 10 -20 10 -11 0 -20 5 -20 10 0 6 -9 10 -20 10 -11 0 -20 5 -20
10 0 6 -9 10 -20 10 -11 0 -20 5 -20 10 0 6 -8 10 -18 10 -10 0 -24 9 -32 20
-8 11 -21 20 -29 20 -8 0 -11 3 -8 7 8 7 -38 33 -59 33 -8 0 -14 -4 -14 -10 0
-5 5 -10 10 -10 6 0 10 -7 10 -15 0 -17 124 -145 141 -145 12 0 39 -25 39 -37
0 -4 -22 -6 -50 -5 -27 2 -50 8 -50 13 0 5 -9 9 -20 9 -11 0 -20 5 -20 10 0 6
-7 10 -15 10 -26 0 -125 107 -125 135 0 14 -4 25 -10 25 -5 0 -10 24 -10 54 0
30 -4 58 -10 61 -5 3 -10 19 -10 36 0 28 1 29 50 29 28 0 50 -4 50 -10z m1540
6 c0 -3 -4 -8 -10 -11 -5 -3 -10 -1 -10 4 0 6 5 11 10 11 6 0 10 -2 10 -4z
m2060 -51 c0 -30 -4 -55 -10 -55 -5 0 -10 -20 -10 -45 0 -25 -4 -45 -10 -45
-5 0 -10 -7 -10 -15 0 -20 -125 -145 -145 -145 -8 0 -15 -4 -15 -10 0 -5 -18
-10 -40 -10 -22 0 -40 -4 -40 -10 0 -12 -37 -13 -44 -1 -3 5 1 11 9 15 8 3 15
12 15 21 0 8 7 15 15 15 20 0 145 125 145 145 0 8 5 15 10 15 6 0 10 9 10 20
0 27 -7 25 -40 -10 -15 -16 -34 -30 -40 -30 -7 0 -20 -8 -29 -18 -9 -9 -28
-23 -43 -31 -16 -8 -28 -18 -28 -23 0 -4 -9 -8 -20 -8 -11 0 -20 -4 -20 -10 0
-5 -9 -10 -20 -10 -11 0 -20 -4 -20 -10 0 -5 -9 -10 -20 -10 -28 0 -100 -23
-100 -32 0 -5 -13 -8 -30 -8 -16 0 -30 -4 -30 -10 0 -5 -18 -10 -40 -10 -22 0
-40 5 -40 10 0 6 9 10 20 10 11 0 20 5 20 10 0 6 14 10 30 10 17 0 30 5 30 10
0 6 9 10 20 10 11 0 20 5 20 10 0 6 9 10 20 10 11 0 20 5 20 10 0 6 8 10 18
10 10 0 24 9 32 20 8 11 20 20 27 20 15 0 111 94 129 126 6 10 14 18 18 16 4
-2 20 11 36 28 15 16 35 30 44 30 9 0 16 5 16 10 0 6 9 10 20 10 11 0 20 5 20
10 0 6 23 10 50 10 l50 0 0 -55z m-2520 25 c0 -5 14 -10 30 -10 17 0 30 -4 30
-10 0 -5 14 -10 30 -10 17 0 30 -4 30 -10 0 -5 9 -10 20 -10 11 0 20 -4 20
-10 0 -5 9 -10 20 -10 11 0 20 -4 20 -10 0 -5 9 -10 20 -10 11 0 20 -4 20 -9
0 -5 14 -14 30 -21 34 -14 40 -30 10 -30 -11 0 -20 5 -20 10 0 6 -8 10 -18 10
-10 0 -24 9 -32 20 -10 14 -26 20 -52 20 -21 0 -38 5 -38 10 0 6 -24 10 -54
10 -30 0 -58 5 -61 10 -10 16 -25 1 -25 -26 0 -17 -6 -24 -19 -24 -11 0 -21 5
-23 11 -3 9 -10 9 -26 0 -12 -6 -22 -8 -22 -3 0 5 -7 9 -15 9 -8 0 -15 -4 -15
-9 0 -4 -13 -8 -29 -8 -17 0 -33 -4 -36 -10 -3 -5 -15 -10 -27 -10 -11 0 -33
-13 -48 -30 -15 -16 -33 -30 -39 -30 -6 0 -11 -4 -11 -10 0 -17 -43 -50 -67
-50 -21 0 -23 4 -23 60 0 33 4 60 10 60 6 0 10 7 10 15 0 9 16 31 35 50 19 19
41 35 50 35 8 0 15 5 15 10 0 6 14 10 30 10 17 0 30 5 30 10 0 6 47 10 120 10
73 0 120 -4 120 -10z m1600 0 c0 -5 9 -10 20 -10 11 0 20 -4 20 -10 0 -5 7
-10 15 -10 20 0 85 -65 85 -85 0 -8 5 -15 10 -15 6 0 10 -30 10 -70 0 -63 -2
-70 -20 -70 -11 0 -19 3 -19 8 4 21 -3 32 -18 32 -9 0 -14 3 -10 6 8 8 -39 54
-55 54 -8 0 -20 9 -28 20 -8 11 -25 20 -37 20 -13 0 -23 5 -23 10 0 6 -20 10
-45 10 -25 0 -45 4 -45 9 0 5 -12 12 -27 16 -19 4 -23 9 -14 14 10 6 9 10 -4
15 -25 9 -55 7 -55 -4 0 -6 -30 -10 -70 -10 -40 0 -70 -4 -70 -10 0 -5 -13
-10 -30 -10 -16 0 -30 -4 -30 -10 0 -5 -9 -10 -20 -10 -11 0 -20 -4 -20 -10 0
-5 -9 -10 -20 -10 -11 0 -20 3 -20 6 0 11 29 34 44 34 9 0 16 5 16 10 0 6 11
10 24 10 14 0 28 5 31 10 3 6 15 10 26 10 10 0 19 5 19 10 0 6 14 10 30 10 17
0 30 5 30 10 0 6 14 10 30 10 17 0 30 5 30 10 0 6 47 10 120 10 73 0 120 -4
120 -10z m-1255 -164 c8 -7 11 -16 8 -19 -5 -6 -33 17 -33 27 0 10 11 7 25 -8z
m-205 -116 c0 -5 9 -10 20 -10 11 0 20 -4 20 -10 0 -6 -28 -10 -62 -11 -45 0
-57 -3 -43 -9 19 -8 19 -9 -3 -9 -13 -1 -34 -12 -48 -26 -14 -14 -30 -22 -36
-19 -7 5 -9 2 -5 -8 4 -11 -1 -18 -16 -22 -12 -3 -23 -1 -25 4 -2 6 -17 10
-33 10 -16 0 -29 5 -29 10 0 6 -7 10 -16 10 -15 0 -44 23 -44 34 0 3 14 6 30
6 17 0 30 5 30 10 0 6 9 10 20 10 11 0 20 5 20 10 0 6 14 10 30 10 17 0 30 5
30 10 0 6 33 10 80 10 47 0 80 -4 80 -10z m1220 0 c0 -5 14 -10 30 -10 17 0
30 -4 30 -10 0 -5 9 -10 19 -10 11 0 23 -4 26 -10 3 -5 22 -10 41 -10 37 0 41
-5 22 -23 -31 -29 -148 -50 -148 -27 0 6 -6 10 -14 10 -7 0 -27 14 -44 30 -29
27 -38 30 -97 30 -37 0 -65 4 -65 10 0 6 14 10 30 10 17 0 30 5 30 10 0 6 30
10 70 10 40 0 70 -4 70 -10z m-2305 -380 c-3 -5 -1 -10 5 -10 6 0 18 -7 26
-15 13 -13 12 -18 -10 -40 -25 -25 -56 -33 -56 -15 0 6 -18 10 -40 10 -22 0
-40 -4 -40 -10 0 -5 -7 -10 -16 -10 -36 0 -64 -56 -64 -130 0 -51 4 -65 25
-85 13 -14 31 -25 40 -25 8 0 15 -4 15 -10 0 -5 23 -10 50 -10 l50 0 0 36 c0
42 -19 64 -54 64 -22 0 -26 4 -26 30 l0 30 80 0 80 0 0 -96 c0 -104 -9 -124
-54 -124 -14 0 -26 -4 -26 -10 0 -6 -27 -10 -60 -10 -33 0 -60 4 -60 10 0 6
-8 10 -18 10 -10 0 -24 9 -32 20 -8 11 -22 20 -32 20 -11 0 -18 7 -18 18 0 10
-9 24 -20 32 -18 13 -20 26 -20 112 0 59 4 98 10 98 6 0 10 7 10 16 0 24 70
84 97 84 13 0 23 5 23 10 0 6 30 10 71 10 44 0 68 -4 64 -10z m351 -4 c8 -8
14 -26 14 -40 0 -14 5 -26 10 -26 6 0 10 -9 10 -20 0 -11 5 -20 10 -20 6 0 10
-13 10 -30 0 -16 5 -30 10 -30 6 0 10 -9 10 -20 0 -11 5 -20 10 -20 6 0 10
-13 10 -30 0 -16 5 -30 10 -30 6 0 10 -9 10 -20 0 -11 5 -20 10 -20 6 0 10
-13 10 -30 0 -16 5 -30 10 -30 6 0 10 -13 10 -30 0 -28 -2 -30 -40 -30 -38 0
-40 2 -40 30 0 17 -4 30 -10 30 -5 0 -10 9 -10 20 0 18 -7 20 -76 20 -78 0
-104 -11 -104 -44 0 -9 -4 -16 -10 -16 -5 0 -10 -9 -10 -20 0 -17 -7 -20 -40
-20 -38 0 -40 2 -40 30 0 17 5 30 10 30 6 0 10 9 10 20 0 11 5 20 10 20 6 0
10 14 10 30 0 17 5 30 10 30 6 0 10 14 10 30 0 17 5 30 10 30 6 0 10 9 10 20
0 11 5 20 10 20 6 0 10 9 10 20 0 11 5 20 10 20 6 0 10 14 10 30 0 17 5 30 10
30 6 0 10 11 10 25 0 14 6 32 13 40 16 19 55 19 73 1z m449 -31 c25 -24 45
-51 45 -60 0 -8 5 -15 10 -15 6 0 10 -18 10 -40 0 -22 -4 -40 -10 -40 -5 0
-10 -7 -10 -16 0 -9 -15 -30 -32 -47 -21 -19 -28 -32 -20 -34 6 -3 12 -11 12
-20 0 -8 14 -28 30 -43 39 -37 42 -80 5 -80 -26 0 -75 39 -75 60 0 6 -11 22
-25 36 -18 18 -34 24 -59 22 -19 -1 -34 -4 -34 -7 0 -4 0 -30 -1 -58 -1 -52
-2 -53 -31 -53 l-30 0 0 220 0 220 85 0 86 0 44 -45z m325 35 c0 -5 7 -10 15
-10 26 0 105 -86 105 -115 0 -14 5 -25 10 -25 12 0 13 -117 1 -122 -5 -1 -11
-14 -13 -28 -4 -29 -60 -90 -83 -90 -8 0 -15 -4 -15 -10 0 -5 -13 -10 -30 -10
-16 0 -30 -4 -30 -10 0 -6 -29 -10 -68 -10 -63 0 -70 2 -82 26 -11 20 -12 27
-1 33 7 5 12 11 12 15 -1 3 -1 87 -1 186 l0 180 90 0 c53 0 90 -4 90 -10z
m380 -30 l0 -40 -50 0 -50 0 0 -50 0 -50 40 0 40 0 0 -40 0 -40 -40 0 -40 0 0
-50 0 -50 50 0 50 0 0 -40 0 -40 -90 0 -90 0 0 220 0 220 90 0 90 0 0 -40z
m380 -170 c0 -115 -2 -210 -5 -210 -13 0 -175 171 -175 185 0 8 -9 15 -20 15
-19 0 -20 -7 -20 -96 0 -104 -9 -124 -54 -124 l-26 0 0 210 c0 184 2 210 16
210 18 0 44 -23 44 -39 0 -11 165 -181 175 -181 3 0 5 54 5 120 l0 120 30 0
30 0 0 -210z m360 200 c0 -5 9 -10 20 -10 11 0 20 -7 20 -15 0 -22 -52 -73
-58 -57 -5 15 -102 17 -102 2 0 -5 -7 -10 -15 -10 -22 0 -65 -45 -65 -69 0
-11 -4 -23 -10 -26 -5 -3 -10 -15 -10 -26 0 -10 5 -19 10 -19 6 0 10 -11 10
-25 0 -29 40 -75 65 -75 8 0 15 -4 15 -10 0 -5 23 -10 50 -10 l50 0 0 50 0 50
-40 0 c-38 0 -40 2 -40 30 l0 30 90 0 90 0 0 -96 c0 -104 -9 -124 -54 -124
-14 0 -26 -4 -26 -10 0 -6 -30 -10 -70 -10 -40 0 -70 4 -70 10 0 6 -8 10 -18
10 -10 0 -24 9 -32 20 -8 11 -22 20 -32 20 -11 0 -18 7 -18 18 0 10 -9 24 -20
32 -12 8 -20 26 -20 42 0 15 -4 28 -10 28 -5 0 -10 18 -10 40 0 22 5 40 10 40
6 0 10 12 10 26 0 14 7 32 15 41 8 8 12 19 9 25 -4 7 -2 8 4 4 7 -4 12 -2 12
4 0 17 26 40 44 40 9 0 16 5 16 10 0 6 9 10 20 10 11 0 20 5 20 10 0 6 30 10
70 10 40 0 70 -4 70 -10z m220 -170 l0 -180 70 0 70 0 0 -40 0 -40 -110 0
-110 0 0 220 0 220 40 0 40 0 0 -180z m420 170 c0 -5 7 -10 16 -10 20 0 96
-78 88 -91 -3 -5 0 -9 5 -9 6 0 11 -13 11 -30 0 -16 5 -30 10 -30 6 0 10 -18
10 -39 0 -22 -4 -43 -10 -46 -5 -3 -10 -17 -10 -31 0 -13 -4 -24 -10 -24 -5 0
-10 -7 -10 -15 0 -20 -45 -65 -65 -65 -8 0 -15 -4 -15 -10 0 -5 -9 -10 -20
-10 -11 0 -20 -4 -20 -10 0 -5 -22 -10 -50 -10 -27 0 -50 5 -50 10 0 6 -9 10
-20 10 -11 0 -20 5 -20 10 0 6 -7 10 -15 10 -20 0 -65 45 -65 65 0 8 -4 15
-10 15 -5 0 -10 9 -10 20 0 11 -4 20 -10 20 -6 0 -10 27 -10 60 0 33 4 60 10
60 6 0 10 11 10 25 0 29 79 115 105 115 8 0 15 5 15 10 0 6 30 10 70 10 40 0
70 -4 70 -10z m200 -10 c0 -11 5 -20 10 -20 6 0 10 -9 10 -20 0 -11 5 -20 10
-20 6 0 10 -13 10 -30 0 -16 5 -30 10 -30 6 0 10 -13 10 -30 0 -16 5 -30 10
-30 6 0 10 -9 10 -20 0 -11 5 -20 10 -20 6 0 10 9 10 20 0 11 5 20 10 20 6 0
10 14 10 30 0 17 5 30 10 30 6 0 10 9 10 20 0 11 5 20 10 20 6 0 10 9 10 20 0
11 5 20 10 20 6 0 10 9 10 20 0 13 7 20 20 20 15 0 20 -7 20 -26 0 -14 4 -23
10 -19 6 3 10 -3 10 -14 0 -12 5 -21 10 -21 6 0 10 -13 10 -30 0 -16 5 -30 10
-30 6 0 10 -7 10 -16 0 -8 7 -22 15 -30 13 -14 17 -14 30 0 8 8 15 26 15 40 0
14 5 26 10 26 6 0 10 14 10 30 0 17 5 30 10 30 6 0 10 12 10 26 0 35 22 54 64
54 29 0 36 -4 36 -20 0 -11 -4 -20 -10 -20 -5 0 -10 -13 -10 -30 0 -16 -4 -30
-10 -30 -5 0 -10 -13 -10 -30 0 -16 -4 -30 -10 -30 -5 0 -10 -13 -10 -30 0
-16 -4 -30 -10 -30 -5 0 -10 -9 -10 -20 0 -11 -4 -20 -10 -20 -5 0 -10 -18
-10 -40 0 -22 -4 -40 -10 -40 -5 0 -10 -13 -10 -30 0 -16 -4 -30 -10 -30 -5 0
-10 -9 -10 -20 0 -11 -3 -20 -6 -20 -11 0 -34 29 -34 44 0 9 -4 16 -10 16 -5
0 -10 9 -10 20 0 11 -4 20 -10 20 -5 0 -10 9 -10 20 0 11 -4 20 -10 20 -5 0
-10 9 -10 20 0 11 -4 20 -10 20 -5 0 -10 9 -10 20 0 12 -7 20 -16 20 -20 0
-44 -24 -44 -44 0 -9 -4 -16 -10 -16 -5 0 -10 -13 -10 -30 0 -16 -4 -30 -10
-30 -5 0 -10 -9 -10 -20 0 -11 -4 -20 -10 -20 -5 0 -10 -7 -10 -16 0 -15 -23
-44 -34 -44 -3 0 -6 9 -6 20 0 11 -4 20 -10 20 -5 0 -10 14 -10 30 0 17 -4 30
-10 30 -5 0 -10 9 -10 19 0 11 -4 23 -10 26 -5 3 -10 22 -10 41 0 19 -4 34
-10 34 -5 0 -10 14 -10 30 0 17 -4 30 -10 30 -5 0 -10 14 -10 30 0 17 -4 30
-10 30 -5 0 -10 14 -10 30 0 17 -4 30 -10 30 -5 0 -10 9 -10 20 0 17 7 20 40
20 33 0 40 -3 40 -20z m-1360 -607 c0 -2 -8 -12 -17 -21 -12 -12 -18 -13 -21
-4 -4 14 -42 16 -42 2 0 -5 -9 -10 -20 -10 -32 0 -27 -63 7 -98 17 -17 28 -22
31 -14 4 12 62 18 62 6 0 -17 -34 -34 -70 -34 -56 0 -90 34 -90 90 0 44 29 85
66 92 22 4 94 -2 94 -9z m1040 -14 c0 -12 -7 -19 -20 -19 -11 0 -20 5 -20 10
0 15 -49 12 -66 -4 -8 -8 -14 -21 -14 -29 0 -9 -6 -18 -12 -21 -10 -5 -10 -7
0 -12 6 -3 12 -14 12 -25 0 -12 7 -19 20 -19 11 0 20 -4 20 -10 0 -15 29 -12
46 4 19 20 18 26 -5 26 -14 0 -19 6 -18 20 1 15 8 20 29 20 27 0 28 -2 28 -50
0 -43 -3 -50 -20 -50 -11 0 -20 -4 -20 -10 0 -5 -9 -10 -20 -10 -11 0 -20 5
-20 10 0 6 -7 10 -15 10 -9 0 -27 11 -40 25 -19 18 -25 35 -25 70 0 25 5 45
10 45 6 0 10 9 10 19 0 16 8 20 38 23 67 6 102 -2 102 -23z m-2278 -56 l3 -78
38 -3 c60 -5 43 -22 -23 -22 l-60 0 0 90 c0 83 2 90 20 90 17 0 19 -8 22 -77z
m238 57 c0 -11 5 -20 10 -20 6 0 10 -8 10 -18 0 -10 9 -24 20 -32 11 -8 20
-24 20 -37 0 -12 5 -25 10 -28 17 -10 11 -25 -9 -25 -10 0 -21 9 -24 20 -4 16
-14 20 -49 20 -32 0 -47 -5 -58 -20 -8 -11 -18 -20 -22 -20 -4 0 -8 9 -8 20 0
11 5 20 10 20 6 0 10 13 10 28 0 16 8 34 20 42 11 8 20 20 20 28 0 14 21 41
33 42 4 0 7 -9 7 -20z m210 -20 c21 -22 46 -40 54 -40 12 0 16 10 16 40 0 33
3 40 20 40 18 0 20 -7 20 -80 0 -92 -12 -102 -60 -50 -15 17 -35 30 -44 30 -9
0 -16 5 -16 10 0 6 -4 10 -10 10 -6 0 -10 -27 -10 -60 0 -63 -3 -69 -26 -46
-10 10 -14 39 -14 100 0 102 10 108 70 46z m345 15 c19 -18 25 -35 25 -65 0
-65 -32 -90 -115 -90 l-65 0 0 90 0 90 65 0 c57 0 69 -3 90 -25z m205 15 c0
-5 -13 -10 -30 -10 -21 0 -30 -5 -30 -16 0 -18 23 -44 40 -44 18 0 40 -27 40
-50 0 -33 -24 -50 -73 -50 -42 0 -67 17 -50 34 11 11 41 6 45 -6 3 -9 10 -7
24 6 13 14 15 21 6 24 -7 2 -10 8 -6 13 3 5 -4 9 -16 9 -31 0 -50 24 -50 64
l0 36 50 0 c28 0 50 -4 50 -10z m406 -4 c8 -8 14 -22 14 -30 0 -9 5 -16 10
-16 6 0 10 -9 10 -20 0 -11 5 -20 10 -20 6 0 10 -15 10 -32 0 -25 3 -29 10
-18 8 12 10 11 10 -7 0 -16 -6 -23 -20 -23 -13 0 -20 7 -20 20 0 17 -7 20 -48
20 -36 0 -51 -5 -62 -20 -8 -11 -18 -20 -23 -20 -15 0 -3 54 15 71 10 9 18 24
18 33 0 9 5 16 10 16 6 0 10 7 10 15 0 14 19 44 28 45 2 0 10 -6 18 -14z m260
0 c8 -8 14 -29 14 -46 0 -37 -20 -60 -52 -60 -13 0 -29 -9 -36 -21 -10 -15
-10 -19 -1 -14 7 5 10 3 7 -6 -2 -8 -17 -15 -31 -17 -27 -3 -27 -3 -27 60 0
35 6 76 13 91 10 23 18 27 55 27 24 0 50 -6 58 -14z m114 -75 c0 -82 -2 -90
-19 -88 -17 1 -19 9 -19 79 0 43 4 78 10 78 5 0 6 5 3 10 -3 6 1 10 9 10 13 0
16 -15 16 -89z m150 49 c21 -22 46 -40 54 -40 12 0 16 10 16 40 0 33 3 40 20
40 19 0 20 -7 20 -90 0 -49 -3 -90 -6 -90 -3 0 -23 18 -44 40 -25 26 -47 40
-64 40 -24 0 -26 -4 -26 -40 0 -22 -4 -40 -10 -40 -6 0 -10 37 -10 90 0 50 3
90 6 90 3 0 23 -18 44 -40z m-2130 -50 c0 -6 -87 -10 -240 -10 -153 0 -240 4
-240 10 0 6 87 10 240 10 153 0 240 -4 240 -10z m3140 0 c0 -6 -90 -10 -250
-10 -160 0 -250 4 -250 10 0 6 90 10 250 10 160 0 250 -4 250 -10z"/>
<path d="M2923 6194 c-42 -44 -22 -94 38 -94 34 0 58 22 59 53 0 20 -22 47
-40 47 -6 0 -9 4 -6 8 11 19 -31 7 -51 -14z"/>
<path d="M3273 3265 c-7 -8 -13 -26 -13 -40 0 -14 -4 -25 -9 -25 -6 0 -9 -9
-8 -20 1 -17 8 -20 49 -20 41 0 48 3 48 20 0 11 -4 20 -10 20 -5 0 -10 12 -10
26 0 14 -6 32 -14 40 -17 17 -18 17 -33 -1z"/>
<path d="M3620 3288 l0 -68 60 0 c53 0 60 2 60 20 0 11 5 20 10 20 20 0 10 51
-15 76 -20 20 -34 24 -70 23 l-45 -3 0 -68z"/>
<path d="M3993 3345 c-9 -9 -13 -46 -13 -102 0 -63 3 -84 11 -73 7 11 9 7 8
-20 -2 -67 -1 -70 31 -70 17 0 30 5 30 10 0 6 7 10 15 10 20 0 65 45 65 65 0
8 5 15 10 15 6 0 10 18 10 40 0 22 -4 40 -10 40 -5 0 -10 9 -10 20 0 11 -4 20
-10 20 -5 0 -10 9 -10 20 0 13 -7 20 -20 20 -11 0 -20 5 -20 10 0 15 -73 11
-87 -5z"/>
<path d="M5760 3350 c0 -5 -7 -10 -15 -10 -18 0 -65 -44 -65 -60 0 -6 -4 -8
-10 -5 -6 4 -10 -13 -10 -44 0 -28 5 -51 10 -51 6 0 10 -7 10 -15 0 -20 45
-65 65 -65 8 0 15 -4 15 -10 0 -5 14 -10 30 -10 17 0 30 5 30 10 0 6 7 10 15
10 20 0 65 45 65 65 0 8 5 15 10 15 6 0 10 18 10 40 0 22 -4 40 -10 40 -5 0
-10 7 -10 15 0 20 -45 65 -65 65 -8 0 -15 5 -15 10 0 6 -13 10 -30 10 -16 0
-30 -4 -30 -10z"/>
<path d="M3660 2730 c0 -5 9 -10 20 -10 11 0 20 5 20 10 0 6 -9 10 -20 10 -11
0 -20 -4 -20 -10z"/>
<path d="M4140 2744 c0 -35 5 -61 14 -70 17 -16 46 -19 46 -4 0 6 9 10 20 10
17 0 20 7 20 50 0 43 -3 50 -20 50 -11 0 -20 5 -20 10 0 6 -13 10 -30 10 -30
0 -30 0 -30 -56z"/>
<path d="M4840 2740 c0 -11 5 -20 10 -20 6 0 10 9 10 20 0 11 -4 20 -10 20 -5
0 -10 -9 -10 -20z"/>
<path d="M5053 2785 c-17 -19 -16 -33 2 -51 13 -14 17 -14 30 0 21 21 20 66
-2 66 -10 -1 -24 -7 -30 -15z"/>
</g>
</svg>
