<?xml version="1.0" encoding="UTF-8" standalone="no"?> <svg id="Layer_1" data-name="Layer 1" xmlns="http://www.w3.org/2000/svg" viewBox="0 0 64 64"><defs><style>.cls-1,.cls-2{fill:#8cc63f;}.cls-2{opacity:0.5;}.cls-3{fill:#fbcc34;}</style></defs><path class="cls-1" d="M45.58,34H2V58H36.47c0-3.47.42-15.33,7.91-22.91C44.76,34.7,45.17,34.35,45.58,34Z"/><path class="cls-2" d="M15,16A6,6,0,0,1,3,16C3,12.69,5.69,6,9,6S15,12.69,15,16Z"/><path class="cls-2" d="M31,21a6,6,0,0,1-12,0c0-3.31,2.69-10,6-10S31,17.69,31,21Z"/><path class="cls-2" d="M62,44C51.89,44,47.46,54.64,46.32,58h4.62c1.91-1.93,6.49-6,11.06-6"/><path class="cls-2" d="M62,37C46.32,37,42.78,53.7,42.13,58H37c-.06-5.21,1-29,25-29"/><path class="cls-1" d="M62,37C46.32,37,42.78,53.7,42.13,58h4.19C47.46,54.64,51.89,44,62,44"/><circle class="cls-3" cx="52" cy="16" r="6"/><path d="M26,33V27.92A7,7,0,0,0,32,21c0-3.77-3-11-7-11s-7,7.23-7,11a7,7,0,0,0,6,6.92V33H10V22.92A7,7,0,0,0,16,16c0-3.77-3-11-7-11S2,12.23,2,16a7,7,0,0,0,6,6.92V33H2v2H43.79a21.05,21.05,0,0,0-1.69,2H2v2H40.73c-.4.66-.78,1.32-1.12,2H2v2H38.71c-.27.67-.52,1.33-.74,2H2v2H37.37c-.18.68-.34,1.35-.48,2H2v2H36.51c-.11.7-.2,1.36-.27,2H2v2H36.06c-.05.76-.07,1.43-.08,2H2v2H62V57H53.49c2.16-1.83,5.37-4,8.51-4V51c-4.76,0-9.42,4-11.47,6H47.76C49.35,53,53.6,45,62,45V43C51.82,43,47.1,53,45.61,57H43.32c3.15-17.6,15-19,18.68-19V36C46.34,36,42.2,52,41.28,57H38c.07-4.18,1-14.28,7.47-20.86C49.48,32.07,55,30,62,30V28c-6.46,0-11.83,1.69-16,5ZM8,12.13l-1.45-1-1.1,1.66L8,14.54v1.59l-1.45-1-1.1,1.66L8,18.54V20.9A5,5,0,0,1,4,16c0-3.15,2.57-9,5-9s5,5.85,5,9a5,5,0,0,1-4,4.9V18.54l2.55-1.71-1.1-1.66-1.45,1V14.54l2.55-1.71-1.1-1.66-1.45,1V10H8Zm16,5-1.45-1-1.1,1.66L24,19.54v1.59l-1.45-1-1.1,1.66L24,23.54V25.9A5,5,0,0,1,20,21c0-3.15,2.57-9,5-9s5,5.85,5,9a5,5,0,0,1-4,4.9V23.54l2.55-1.71-1.1-1.66-1.45,1V19.54l2.55-1.71-1.1-1.66-1.45,1V15H24Z"/><path d="M52,23a7,7,0,1,0-7-7A7,7,0,0,0,52,23Zm0-12a5,5,0,1,1-5,5A5,5,0,0,1,52,11Z"/><rect x="51" y="6" width="2" height="2"/><rect x="51" y="24" width="2" height="2"/><rect x="60" y="15" width="2" height="2"/><rect x="42" y="15" width="2" height="2"/><rect x="57.36" y="8.64" width="2" height="2" transform="translate(10.28 44.09) rotate(-45)"/><rect x="44.64" y="21.36" width="2" height="2" transform="translate(-2.45 38.82) rotate(-45)"/><rect x="57.36" y="21.36" width="2" height="2" transform="translate(1.28 47.81) rotate(-44.99)"/><rect x="44.64" y="8.64" width="2" height="2" transform="translate(6.55 35.08) rotate(-44.99)"/></svg>